999
dxfrw 0.5.11
0
SECTION
2
HEADER
9
$ACADVER
1
AC1021
9
$HANDSEED
5
20000
9
$DWGCODEPAGE
3
ANSI_1252
9
$INSBASE
10
0
20
0
30
0
9
$EXTMIN
10
19.6066382046
20
-226.329647922
30
0
9
$EXTMAX
10
248.356642287
20
28.30274605
30
0
9
$LIMMIN
10
0
20
0
9
$LIMMAX
10
12
20
9
9
$ORTHOMODE
70
0
9
$LTSCALE
40
1
9
$TEXTSTYLE
7
Standard
9
$CLAYER
8
Measurements2
9
$DIMASZ
40
1.8
9
$DIMLFAC
40
1
9
$DIMSCALE
40
1
9
$DIMEXO
40
0.0625
9
$DIMEXE
40
1.8
9
$DIMTXT
40
5
9
$DIMTSZ
40
0
9
$DIMAUNIT
70
0
9
$DIMADEC
70
0
9
$DIMLUNIT
70
2
9
$DIMSTYLE
2
Standard
9
$DIMGAP
40
5
9
$DIMTIH
70
0
9
$LUNITS
70
2
9
$LUPREC
70
4
9
$AUNITS
70
0
9
$AUPREC
70
0
9
$SPLINESEGS
70
8
9
$GRIDMODE
70
0
9
$SNAPSTYLE
70
0
9
$GRIDUNIT
10
0
20
0
9
$PINSBASE
10
14.518359754
20
319.962319183
30
0
9
$PLIMMIN
10
0
20
0
9
$PLIMMAX
10
297
20
420
9
$INSUNITS
70
4
9
$PSVPSCALE
40
1
0
ENDSEC
0
SECTION
2
CLASSES
0
ENDSEC
0
SECTION
2
TABLES
0
TABLE
2
VPORT
5
8
330
0
100
AcDbSymbolTable
70
1
0
VPORT
5
31
330
2
100
AcDbSymbolTableRecord
100
AcDbViewportTableRecord
2
*ACTIVE
70
0
10
0
20
0
11
1
21
1
12
211.435827137
22
17.051276382
13
0
23
0
14
10
24
10
15
10
25
10
16
0
26
0
36
1
17
0
27
0
37
0
40
265.99991156
41
2.17094017094
42
50
43
0
44
0
50
0
51
0
71
0
72
100
73
1
74
3
75
0
76
0
77
0
78
0
281
0
65
1
110
0
120
0
130
0
111
1
121
0
131
0
112
0
122
1
132
0
79
0
146
0
348
10020
60
7
61
5
292
1
282
1
141
0
142
0
63
250
421
3358443
0
ENDTAB
0
TABLE
2
LTYPE
5
5
330
0
100
AcDbSymbolTable
70
4
0
LTYPE
5
14
330
5
100
AcDbSymbolTableRecord
100
AcDbLinetypeTableRecord
2
ByBlock
70
0
3

72
65
73
0
40
0
0
LTYPE
5
15
330
5
100
AcDbSymbolTableRecord
100
AcDbLinetypeTableRecord
2
ByLayer
70
0
3

72
65
73
0
40
0
0
LTYPE
5
16
330
5
100
AcDbSymbolTableRecord
100
AcDbLinetypeTableRecord
2
Continuous
70
0
3
Solid line
72
65
73
0
40
0
0
LTYPE
5
32
330
5
100
AcDbSymbolTableRecord
100
AcDbLinetypeTableRecord
2
DOT
70
0
3
Dot . . . . . . . . . . . . . . . . . . . . . .
72
65
73
2
40
6.35
49
0
74
0
49
-6.35
74
0
0
LTYPE
5
33
330
5
100
AcDbSymbolTableRecord
100
AcDbLinetypeTableRecord
2
DOT2
70
0
3
Dot (.5x) .....................................
72
65
73
2
40
3.175
49
0
74
0
49
-3.175
74
0
0
LTYPE
5
34
330
5
100
AcDbSymbolTableRecord
100
AcDbLinetypeTableRecord
2
DOTX2
70
0
3
Dot (2x) .  .  .  .  .  .  .  .  .  .  .  .  .
72
65
73
2
40
12.7
49
0
74
0
49
-12.7
74
0
0
LTYPE
5
35
330
5
100
AcDbSymbolTableRecord
100
AcDbLinetypeTableRecord
2
DASHED
70
0
3
Dot . . . . . . . . . . . . . . . . . . . . . .
72
65
73
2
40
19.05
49
12.7
74
0
49
-6.35
74
0
0
LTYPE
5
36
330
5
100
AcDbSymbolTableRecord
100
AcDbLinetypeTableRecord
2
DASHED2
70
0
3
Dashed (.5x) _ _ _ _ _ _ _ _ _ _ _ _ _ _ _ _ _
72
65
73
2
40
9.525
49
6.35
74
0
49
-3.175
74
0
0
LTYPE
5
37
330
5
100
AcDbSymbolTableRecord
100
AcDbLinetypeTableRecord
2
DASHEDX2
70
0
3
Dashed (2x) ____  ____  ____  ____  ____  ___
72
65
73
2
40
38.1
49
25.4
74
0
49
-12.7
74
0
0
LTYPE
5
38
330
5
100
AcDbSymbolTableRecord
100
AcDbLinetypeTableRecord
2
DASHDOT
70
0
3
Dash dot __ . __ . __ . __ . __ . __ . __ . __
72
65
73
4
40
25.4
49
12.7
74
0
49
-6.35
74
0
49
0
74
0
49
-6.35
74
0
0
LTYPE
5
39
330
5
100
AcDbSymbolTableRecord
100
AcDbLinetypeTableRecord
2
DASHDOT2
70
0
3
Dash dot (.5x) _._._._._._._._._._._._._._._.
72
65
73
4
40
12.7
49
6.35
74
0
49
-3.175
74
0
49
0
74
0
49
-3.175
74
0
0
LTYPE
5
3A
330
5
100
AcDbSymbolTableRecord
100
AcDbLinetypeTableRecord
2
DASHDOTX2
70
0
3
Dash dot (2x) ____  .  ____  .  ____  .  ___
72
65
73
4
40
50.8
49
25.4
74
0
49
-12.7
74
0
49
0
74
0
49
-12.7
74
0
0
LTYPE
5
3B
330
5
100
AcDbSymbolTableRecord
100
AcDbLinetypeTableRecord
2
DIVIDE
70
0
3
Divide ____ . . ____ . . ____ . . ____ . . ____
72
65
73
6
40
31.75
49
12.7
74
0
49
-6.35
74
0
49
0
74
0
49
-6.35
74
0
49
0
74
0
49
-6.35
74
0
0
LTYPE
5
3C
330
5
100
AcDbSymbolTableRecord
100
AcDbLinetypeTableRecord
2
DIVIDE2
70
0
3
Divide (.5x) __..__..__..__..__..__..__..__.._
72
65
73
6
40
15.875
49
6.35
74
0
49
-3.175
74
0
49
0
74
0
49
-3.175
74
0
49
0
74
0
49
-3.175
74
0
0
LTYPE
5
3D
330
5
100
AcDbSymbolTableRecord
100
AcDbLinetypeTableRecord
2
DIVIDEX2
70
0
3
Divide (2x) ________  .  .  ________  .  .  _
72
65
73
6
40
63.5
49
25.4
74
0
49
-12.7
74
0
49
0
74
0
49
-12.7
74
0
49
0
74
0
49
-12.7
74
0
0
LTYPE
5
3E
330
5
100
AcDbSymbolTableRecord
100
AcDbLinetypeTableRecord
2
BORDER
70
0
3
Border __ __ . __ __ . __ __ . __ __ . __ __ .
72
65
73
6
40
44.45
49
12.7
74
0
49
-6.35
74
0
49
12.7
74
0
49
-6.35
74
0
49
0
74
0
49
-6.35
74
0
0
LTYPE
5
3F
330
5
100
AcDbSymbolTableRecord
100
AcDbLinetypeTableRecord
2
BORDER2
70
0
3
Border (.5x) __.__.__.__.__.__.__.__.__.__.__.
72
65
73
6
40
22.225
49
6.35
74
0
49
-3.175
74
0
49
6.35
74
0
49
-3.175
74
0
49
0
74
0
49
-3.175
74
0
0
LTYPE
5
40
330
5
100
AcDbSymbolTableRecord
100
AcDbLinetypeTableRecord
2
BORDERX2
70
0
3
Border (2x) ____  ____  .  ____  ____  .  ___
72
65
73
6
40
88.9
49
25.4
74
0
49
-12.7
74
0
49
25.4
74
0
49
-12.7
74
0
49
0
74
0
49
-12.7
74
0
0
LTYPE
5
41
330
5
100
AcDbSymbolTableRecord
100
AcDbLinetypeTableRecord
2
CENTER
70
0
3
Center ____ _ ____ _ ____ _ ____ _ ____ _ ____
72
65
73
4
40
50.8
49
31.75
74
0
49
-6.35
74
0
49
6.35
74
0
49
-6.35
74
0
0
LTYPE
5
42
330
5
100
AcDbSymbolTableRecord
100
AcDbLinetypeTableRecord
2
CENTER2
70
0
3
Center (.5x) ___ _ ___ _ ___ _ ___ _ ___ _ ___
72
65
73
4
40
28.575
49
19.05
74
0
49
-3.175
74
0
49
3.175
74
0
49
-3.175
74
0
0
LTYPE
5
43
330
5
100
AcDbSymbolTableRecord
100
AcDbLinetypeTableRecord
2
CENTERX2
70
0
3
Center (2x) ________  __  ________  __  _____
72
65
73
4
40
101.6
49
63.5
74
0
49
-12.7
74
0
49
12.7
74
0
49
-12.7
74
0
0
ENDTAB
0
TABLE
2
LAYER
5
2
330
0
100
AcDbSymbolTable
70
1
0
LAYER
5
10
330
2
100
AcDbSymbolTableRecord
100
AcDbLayerTableRecord
2
0
70
0
62
1
6
CONTINUOUS
370
-3
390
F
0
LAYER
5
44
330
2
100
AcDbSymbolTableRecord
100
AcDbLayerTableRecord
2
Measurements
70
0
62
7
6
CONTINUOUS
370
0
390
F
0
LAYER
5
45
330
2
100
AcDbSymbolTableRecord
100
AcDbLayerTableRecord
2
Measurements2
70
0
62
7
6
CONTINUOUS
370
0
390
F
0
LAYER
5
46
330
2
100
AcDbSymbolTableRecord
100
AcDbLayerTableRecord
2
Mounting Drillings
70
0
62
7
6
CONTINUOUS
370
0
390
F
0
LAYER
5
47
330
2
100
AcDbSymbolTableRecord
100
AcDbLayerTableRecord
2
Outline T-Bone
70
0
62
7
6
CONTINUOUS
370
-3
390
F
0
LAYER
5
48
330
2
100
AcDbSymbolTableRecord
100
AcDbLayerTableRecord
2
Outlinebox
70
1
62
7
6
CONTINUOUS
370
0
390
F
0
ENDTAB
0
TABLE
2
STYLE
5
3
330
0
100
AcDbSymbolTable
70
3
0
STYLE
5
49
330
2
100
AcDbSymbolTableRecord
100
AcDbTextStyleTableRecord
2
standard
70
0
40
0
41
1
50
0
71
0
42
1
3
standard
4

0
ENDTAB
0
TABLE
2
VIEW
5
6
330
0
100
AcDbSymbolTable
70
0
0
ENDTAB
0
TABLE
2
UCS
5
7
330
0
100
AcDbSymbolTable
70
0
0
ENDTAB
0
TABLE
2
APPID
5
9
330
0
100
AcDbSymbolTable
70
1
0
APPID
5
12
330
9
100
AcDbSymbolTableRecord
100
AcDbRegAppTableRecord
2
ACAD
70
0
0
ENDTAB
0
TABLE
2
DIMSTYLE
5
A
330
0
100
AcDbSymbolTable
70
1
100
AcDbDimStyleTable
71
1
0
DIMSTYLE
105
4A
330
A
100
AcDbSymbolTableRecord
100
AcDbDimStyleTableRecord
2
Standard
70
0
40
1
41
1.8
42
0.0625
43
0.38
44
1.8
45
0
46
0
47
0
48
0
140
5
141
0.09
142
0
143
25.4
144
1
145
0
146
1
147
5
148
0
71
0
72
0
73
0
74
1
75
0
76
0
77
0
78
0
79
0
170
0
171
2
172
0
173
0
174
0
175
0
176
0
177
0
178
0
179
0
271
4
272
4
273
2
274
2
275
0
276
0
277
2
278
46
279
0
280
0
281
0
282
0
283
1
284
0
285
0
286
0
288
0
289
3
340
Standard
341

371
-2
372
-2
0
ENDTAB
0
TABLE
2
BLOCK_RECORD
5
1
330
0
100
AcDbSymbolTable
70
2
0
BLOCK_RECORD
5
1F
330
1
100
AcDbSymbolTableRecord
100
AcDbBlockTableRecord
2
*Model_Space
70
0
280
1
281
0
0
BLOCK_RECORD
5
1E
330
1
100
AcDbSymbolTableRecord
100
AcDbBlockTableRecord
2
*Paper_Space
70
0
280
1
281
0
0
BLOCK_RECORD
5
4B
330
1
100
AcDbSymbolTableRecord
100
AcDbBlockTableRecord
2
*D4
70
0
280
1
281
0
0
BLOCK_RECORD
5
4E
330
1
100
AcDbSymbolTableRecord
100
AcDbBlockTableRecord
2
*D6
70
0
280
1
281
0
0
BLOCK_RECORD
5
51
330
1
100
AcDbSymbolTableRecord
100
AcDbBlockTableRecord
2
*D11
70
0
280
1
281
0
0
BLOCK_RECORD
5
54
330
1
100
AcDbSymbolTableRecord
100
AcDbBlockTableRecord
2
*D7
70
0
280
1
281
0
0
BLOCK_RECORD
5
57
330
1
100
AcDbSymbolTableRecord
100
AcDbBlockTableRecord
2
*D10
70
0
280
1
281
0
0
BLOCK_RECORD
5
5A
330
1
100
AcDbSymbolTableRecord
100
AcDbBlockTableRecord
2
*D8
70
0
280
1
281
0
0
BLOCK_RECORD
5
5D
330
1
100
AcDbSymbolTableRecord
100
AcDbBlockTableRecord
2
*D3
70
0
280
1
281
0
0
BLOCK_RECORD
5
60
330
1
100
AcDbSymbolTableRecord
100
AcDbBlockTableRecord
2
*D5
70
0
280
1
281
0
0
BLOCK_RECORD
5
63
330
1
100
AcDbSymbolTableRecord
100
AcDbBlockTableRecord
2
*D2
70
0
280
1
281
0
0
BLOCK_RECORD
5
66
330
1
100
AcDbSymbolTableRecord
100
AcDbBlockTableRecord
2
*D9
70
0
280
1
281
0
0
BLOCK_RECORD
5
69
330
1
100
AcDbSymbolTableRecord
100
AcDbBlockTableRecord
2
*D1
70
0
280
1
281
0
0
ENDTAB
0
ENDSEC
0
SECTION
2
BLOCKS
0
BLOCK
5
20
330
1F
100
AcDbEntity
8
0
100
AcDbBlockBegin
2
*Model_Space
70
0
10
0
20
0
30
0
3
*Model_Space
1

0
ENDBLK
5
21
330
1F
100
AcDbEntity
8
0
100
AcDbBlockEnd
0
BLOCK
5
1C
330
1B
100
AcDbEntity
8
0
100
AcDbBlockBegin
2
*Paper_Space
70
0
10
0
20
0
30
0
3
*Paper_Space
1

0
ENDBLK
5
1D
330
1F
100
AcDbEntity
8
0
100
AcDbBlockEnd
0
BLOCK
5
4C
330
4B
100
AcDbEntity
8
0
100
AcDbBlockBegin
2
*D4
70
1
10
0
20
0
3
*D4
1

0
LINE
5
6C
100
AcDbEntity
8
Measurements2
6
CONTINUOUS
62
7
370
0
100
AcDbLine
10
99.3945408762
20
-27.483
11
99.3945408762
21
-93.5229544509
0
SOLID
5
6D
100
AcDbEntity
8
Measurements2
6
CONTINUOUS
62
7
370
0
100
AcDbTrace
10
99.3945408762
20
-27.483
30
0
11
99.6942658298
21
-29.283
31
0
12
99.0948159226
22
-29.283
32
0
13
99.0948159226
23
-29.283
33
0
0
SOLID
5
6E
100
AcDbEntity
8
Measurements2
6
CONTINUOUS
62
7
370
0
100
AcDbTrace
10
99.3945408762
20
-93.5229544509
30
0
11
99.0948159226
21
-91.7229544509
31
0
12
99.6942658298
22
-91.7229544509
32
0
13
99.6942658298
23
-91.7229544509
33
0
0
MTEXT
5
6F
100
AcDbEntity
8
Measurements2
6
CONTINUOUS
62
7
370
0
100
AcDbMText
10
91.8945408762
20
-60.5029772255
30
0
40
5
41
23.8888888889
71
5
72
1
1
66.0400
7
standard
210
0
220
0
230
1
50
90
73
2
44
1
0
LINE
5
70
100
AcDbEntity
8
Measurements2
6
CONTINUOUS
62
7
370
0
100
AcDbLine
10
111.6545
20
-27.483
11
97.5945408762
21
-27.483
0
LINE
5
71
100
AcDbEntity
8
Measurements2
6
CONTINUOUS
62
7
370
0
100
AcDbLine
10
116.574473155
20
-93.5229544509
11
97.5945408762
21
-93.5229544509
0
ENDBLK
5
4D
330
4B
100
AcDbEntity
8
0
100
AcDbBlockEnd
0
BLOCK
5
4F
330
4E
100
AcDbEntity
8
0
100
AcDbBlockBegin
2
*D6
70
1
10
0
20
0
3
*D6
1

0
LINE
5
72
100
AcDbEntity
8
Measurements2
6
CONTINUOUS
62
7
370
0
100
AcDbLine
10
116.636973155
20
-112.833654605
11
158.546973155
21
-112.833654605
0
SOLID
5
73
100
AcDbEntity
8
Measurements2
6
CONTINUOUS
62
7
370
0
100
AcDbTrace
10
116.636973155
20
-112.833654605
30
0
11
118.436973155
21
-112.533929651
31
0
12
118.436973155
22
-113.133379559
32
0
13
118.436973155
23
-113.133379559
33
0
0
SOLID
5
74
100
AcDbEntity
8
Measurements2
6
CONTINUOUS
62
7
370
0
100
AcDbTrace
10
158.546973155
20
-112.833654605
30
0
11
156.746973155
21
-113.133379559
31
0
12
156.746973155
22
-112.533929651
32
0
13
156.746973155
23
-112.533929651
33
0
0
MTEXT
5
75
100
AcDbEntity
8
Measurements2
6
CONTINUOUS
62
7
370
0
100
AcDbMText
10
137.591973155
20
-105.333654605
30
0
40
5
41
21.6666666667
71
5
72
1
1
41.9100
7
standard
210
0
220
0
230
1
50
0
73
2
44
1
0
LINE
5
76
100
AcDbEntity
8
Measurements2
6
CONTINUOUS
62
7
370
0
100
AcDbLine
10
116.636973155
20
-93.5854544509
11
116.636973155
21
-114.633654605
0
LINE
5
77
100
AcDbEntity
8
Measurements2
6
CONTINUOUS
62
7
370
0
100
AcDbLine
10
158.546973155
20
-93.5854544509
11
158.546973155
21
-114.633654605
0
ENDBLK
5
50
330
4E
100
AcDbEntity
8
0
100
AcDbBlockEnd
0
BLOCK
5
52
330
51
100
AcDbEntity
8
0
100
AcDbBlockBegin
2
*D11
70
1
10
0
20
0
3
*D11
1

0
LINE
5
78
100
AcDbEntity
8
Measurements
6
CONTINUOUS
62
7
370
0
100
AcDbLine
10
154.545200718
20
-96.8434822705
11
162.548799282
21
-90.2025177295
0
SOLID
5
79
100
AcDbEntity
8
Measurements
6
CONTINUOUS
62
7
370
0
100
AcDbTrace
10
157.315677144
20
-94.5446868525
30
0
11
156.121829584
21
-95.9247459277
31
0
12
155.739048278
22
-95.4634231953
32
0
13
155.739048278
23
-95.4634231953
33
0
0
SOLID
5
7A
100
AcDbEntity
8
Measurements
6
CONTINUOUS
62
7
370
0
100
AcDbTrace
10
159.778322856
20
-92.5013131475
30
0
11
160.972170416
21
-91.1212540723
31
0
12
161.354951722
22
-91.5825768047
32
0
13
161.354951722
23
-91.5825768047
33
0
0
MTEXT
5
7B
100
AcDbEntity
8
Measurements
6
CONTINUOUS
62
7
370
0
100
AcDbMText
10
168.242988143
20
-75.7321635016
30
0
40
5
41
24.4444444444
71
5
72
1
1
%%C3.2000
7
standard
210
0
220
0
230
1
50
39.6841002894
73
2
44
1
0
ENDBLK
5
53
330
51
100
AcDbEntity
8
0
100
AcDbBlockEnd
0
BLOCK
5
55
330
54
100
AcDbEntity
8
0
100
AcDbBlockBegin
2
*D7
70
1
10
0
20
0
3
*D7
1

0
LINE
5
7C
100
AcDbEntity
8
Measurements2
6
CONTINUOUS
62
7
370
0
100
AcDbLine
10
111.717
20
-75.1780835519
11
116.636973155
21
-75.1780835519
0
SOLID
5
7D
100
AcDbEntity
8
Measurements2
6
CONTINUOUS
62
7
370
0
100
AcDbTrace
10
111.717
20
-75.1780835519
30
0
11
113.517
21
-74.8783585983
31
0
12
113.517
22
-75.4778085055
32
0
13
113.517
23
-75.4778085055
33
0
0
SOLID
5
7E
100
AcDbEntity
8
Measurements2
6
CONTINUOUS
62
7
370
0
100
AcDbTrace
10
116.636973155
20
-75.1780835519
30
0
11
114.836973155
21
-75.4778085055
31
0
12
114.836973155
22
-74.8783585983
32
0
13
114.836973155
23
-74.8783585983
33
0
0
MTEXT
5
7F
100
AcDbEntity
8
Measurements2
6
CONTINUOUS
62
7
370
0
100
AcDbMText
10
131.636973156
20
-67.6780835519
30
0
40
5
41
20
71
5
72
1
1
4.9200
7
standard
210
0
220
0
230
1
50
0
73
2
44
1
0
LINE
5
80
100
AcDbEntity
8
Measurements2
6
CONTINUOUS
62
7
370
0
100
AcDbLine
10
111.717
20
-27.5455
11
111.717
21
-76.9780835519
0
LINE
5
81
100
AcDbEntity
8
Measurements2
6
CONTINUOUS
62
7
370
0
100
AcDbLine
10
116.636973155
20
-93.5854544509
11
116.636973155
21
-76.9780835519
0
ENDBLK
5
56
330
54
100
AcDbEntity
8
0
100
AcDbBlockEnd
0
BLOCK
5
58
330
57
100
AcDbEntity
8
0
100
AcDbBlockBegin
2
*D10
70
1
10
0
20
0
3
*D10
1

0
LINE
5
82
100
AcDbEntity
8
Measurements
6
CONTINUOUS
62
7
370
0
100
AcDbLine
10
61.4069730734
20
18.30274605
11
219.936973073
21
18.30274605
0
SOLID
5
83
100
AcDbEntity
8
Measurements
6
CONTINUOUS
62
7
370
0
100
AcDbTrace
10
61.4069730734
20
18.30274605
30
0
11
63.2069730734
21
18.6024710036
31
0
12
63.2069730734
22
18.0030210964
32
0
13
63.2069730734
23
18.0030210964
33
0
0
SOLID
5
84
100
AcDbEntity
8
Measurements
6
CONTINUOUS
62
7
370
0
100
AcDbTrace
10
219.936973073
20
18.30274605
30
0
11
218.136973073
21
18.0030210964
31
0
12
218.136973073
22
18.6024710036
32
0
13
218.136973073
23
18.6024710036
33
0
0
MTEXT
5
85
100
AcDbEntity
8
Measurements
6
CONTINUOUS
62
7
370
0
100
AcDbMText
10
140.671973073
20
25.80274605
30
0
40
5
41
26.1111111111
71
5
72
1
1
158.5300
7
standard
210
0
220
0
230
1
50
0
73
2
44
1
0
LINE
5
86
100
AcDbEntity
8
Measurements
6
CONTINUOUS
62
7
370
0
100
AcDbLine
10
61.4069730734
20
-48.2840088382
11
61.4069730734
21
20.10274605
0
LINE
5
87
100
AcDbEntity
8
Measurements
6
CONTINUOUS
62
7
370
0
100
AcDbLine
10
219.936973073
20
-58.7507787929
11
219.936973073
21
20.10274605
0
ENDBLK
5
59
330
57
100
AcDbEntity
8
0
100
AcDbBlockEnd
0
BLOCK
5
5B
330
5A
100
AcDbEntity
8
0
100
AcDbBlockBegin
2
*D8
70
1
10
0
20
0
3
*D8
1

0
LINE
5
88
100
AcDbEntity
8
Measurements2
6
CONTINUOUS
62
7
370
0
100
AcDbLine
10
50.9364780703
20
-33.5129544309
11
50.9364780703
21
-27.483
0
SOLID
5
89
100
AcDbEntity
8
Measurements2
6
CONTINUOUS
62
7
370
0
100
AcDbTrace
10
50.9364780703
20
-33.5129544309
30
0
11
50.6367531167
21
-31.7129544309
31
0
12
51.2362030239
22
-31.7129544309
32
0
13
51.2362030239
23
-31.7129544309
33
0
0
SOLID
5
8A
100
AcDbEntity
8
Measurements2
6
CONTINUOUS
62
7
370
0
100
AcDbTrace
10
50.9364780703
20
-27.483
30
0
11
51.2362030239
21
-29.283
31
0
12
50.6367531167
22
-29.283
32
0
13
50.6367531167
23
-29.283
33
0
0
MTEXT
5
8B
100
AcDbEntity
8
Measurements2
6
CONTINUOUS
62
7
370
0
100
AcDbMText
10
43.4364780703
20
-12.7607777778
30
0
40
5
41
19.4444444444
71
5
72
1
1
6.0300
7
standard
210
0
220
0
230
1
50
90
73
2
44
1
0
LINE
5
8C
100
AcDbEntity
8
Measurements2
6
CONTINUOUS
62
7
370
0
100
AcDbLine
10
125.004473311
20
-33.5129544309
11
49.1364780703
21
-33.5129544309
0
LINE
5
8D
100
AcDbEntity
8
Measurements2
6
CONTINUOUS
62
7
370
0
100
AcDbLine
10
111.6545
20
-27.483
11
49.1364780703
21
-27.483
0
ENDBLK
5
5C
330
5A
100
AcDbEntity
8
0
100
AcDbBlockEnd
0
BLOCK
5
5E
330
5D
100
AcDbEntity
8
0
100
AcDbBlockBegin
2
*D3
70
1
10
0
20
0
3
*D3
1

0
LINE
5
8E
100
AcDbEntity
8
Measurements2
6
CONTINUOUS
62
7
370
0
100
AcDbLine
10
159.977
20
-52.6800781182
11
202.477
21
-52.6800781182
0
SOLID
5
8F
100
AcDbEntity
8
Measurements2
6
CONTINUOUS
62
7
370
0
100
AcDbTrace
10
159.977
20
-52.6800781182
30
0
11
161.777
21
-52.3803531646
31
0
12
161.777
22
-52.9798030718
32
0
13
161.777
23
-52.9798030718
33
0
0
SOLID
5
90
100
AcDbEntity
8
Measurements2
6
CONTINUOUS
62
7
370
0
100
AcDbTrace
10
202.477
20
-52.6800781182
30
0
11
200.677
21
-52.9798030718
31
0
12
200.677
22
-52.3803531646
32
0
13
200.677
23
-52.3803531646
33
0
0
MTEXT
5
91
100
AcDbEntity
8
Measurements2
6
CONTINUOUS
62
7
370
0
100
AcDbMText
10
181.227
20
-45.1800781182
30
0
40
5
41
23.8888888889
71
5
72
1
1
42.5000
7
standard
210
0
220
0
230
1
50
0
73
2
44
1
0
LINE
5
92
100
AcDbEntity
8
Measurements2
6
CONTINUOUS
62
7
370
0
100
AcDbLine
10
159.977
20
-27.5455
11
159.977
21
-54.4800781182
0
LINE
5
93
100
AcDbEntity
8
Measurements2
6
CONTINUOUS
62
7
370
0
100
AcDbLine
10
202.477
20
-27.5455
11
202.477
21
-54.4800781182
0
ENDBLK
5
5F
330
5D
100
AcDbEntity
8
0
100
AcDbBlockEnd
0
BLOCK
5
61
330
60
100
AcDbEntity
8
0
100
AcDbBlockBegin
2
*D5
70
1
10
0
20
0
3
*D5
1

0
LINE
5
94
100
AcDbEntity
8
Measurements2
6
CONTINUOUS
62
7
370
0
100
AcDbLine
10
99.3965967258
20
-173.522954451
11
99.3965967258
21
-93.5229544509
0
SOLID
5
95
100
AcDbEntity
8
Measurements2
6
CONTINUOUS
62
7
370
0
100
AcDbTrace
10
99.3965967258
20
-173.522954451
30
0
11
99.0968717722
21
-171.722954451
31
0
12
99.6963216794
22
-171.722954451
32
0
13
99.6963216794
23
-171.722954451
33
0
0
SOLID
5
96
100
AcDbEntity
8
Measurements2
6
CONTINUOUS
62
7
370
0
100
AcDbTrace
10
99.3965967258
20
-93.5229544509
30
0
11
99.6963216794
21
-95.3229544509
31
0
12
99.0968717722
22
-95.3229544509
32
0
13
99.0968717722
23
-95.3229544509
33
0
0
MTEXT
5
97
100
AcDbEntity
8
Measurements2
6
CONTINUOUS
62
7
370
0
100
AcDbMText
10
91.8965967258
20
-133.522954451
30
0
40
5
41
23.3333333333
71
5
72
1
1
80.0000
7
standard
210
0
220
0
230
1
50
90
73
2
44
1
0
LINE
5
98
100
AcDbEntity
8
Measurements2
6
CONTINUOUS
62
7
370
0
100
AcDbLine
10
116.574473155
20
-173.522954451
11
97.5965967258
21
-173.522954451
0
LINE
5
99
100
AcDbEntity
8
Measurements2
6
CONTINUOUS
62
7
370
0
100
AcDbLine
10
116.574473155
20
-93.5229544509
11
97.5965967258
21
-93.5229544509
0
ENDBLK
5
62
330
60
100
AcDbEntity
8
0
100
AcDbBlockEnd
0
BLOCK
5
64
330
63
100
AcDbEntity
8
0
100
AcDbBlockBegin
2
*D2
70
1
10
0
20
0
3
*D2
1

0
LINE
5
9A
100
AcDbEntity
8
Measurements2
6
CONTINUOUS
62
7
370
0
100
AcDbLine
10
111.717
20
-52.6780321288
11
159.977
21
-52.6780321288
0
SOLID
5
9B
100
AcDbEntity
8
Measurements2
6
CONTINUOUS
62
7
370
0
100
AcDbTrace
10
111.717
20
-52.6780321288
30
0
11
113.517
21
-52.3783071752
31
0
12
113.517
22
-52.9777570824
32
0
13
113.517
23
-52.9777570824
33
0
0
SOLID
5
9C
100
AcDbEntity
8
Measurements2
6
CONTINUOUS
62
7
370
0
100
AcDbTrace
10
159.977
20
-52.6780321288
30
0
11
158.177
21
-52.9777570824
31
0
12
158.177
22
-52.3783071752
32
0
13
158.177
23
-52.3783071752
33
0
0
MTEXT
5
9D
100
AcDbEntity
8
Measurements2
6
CONTINUOUS
62
7
370
0
100
AcDbMText
10
135.847
20
-45.1780321288
30
0
40
5
41
23.8888888889
71
5
72
1
1
48.2600
7
standard
210
0
220
0
230
1
50
0
73
2
44
1
0
LINE
5
9E
100
AcDbEntity
8
Measurements2
6
CONTINUOUS
62
7
370
0
100
AcDbLine
10
111.717
20
-27.5455
11
111.717
21
-54.4780321288
0
LINE
5
9F
100
AcDbEntity
8
Measurements2
6
CONTINUOUS
62
7
370
0
100
AcDbLine
10
159.977
20
-27.5455
11
159.977
21
-54.4780321288
0
ENDBLK
5
65
330
63
100
AcDbEntity
8
0
100
AcDbBlockEnd
0
BLOCK
5
67
330
66
100
AcDbEntity
8
0
100
AcDbBlockBegin
2
*D9
70
1
10
0
20
0
3
*D9
1

0
LINE
5
A0
100
AcDbEntity
8
Measurements2
6
CONTINUOUS
62
7
370
0
100
AcDbLine
10
111.717
20
3.30274604997
11
125.066974726
21
3.30274604997
0
SOLID
5
A1
100
AcDbEntity
8
Measurements2
6
CONTINUOUS
62
7
370
0
100
AcDbTrace
10
111.717
20
3.30274604997
30
0
11
113.517
21
3.60247100357
31
0
12
113.517
22
3.00302109637
32
0
13
113.517
23
3.00302109637
33
0
0
SOLID
5
A2
100
AcDbEntity
8
Measurements2
6
CONTINUOUS
62
7
370
0
100
AcDbTrace
10
125.066974726
20
3.30274604997
30
0
11
123.266974726
21
3.00302109637
31
0
12
123.266974726
22
3.60247100357
32
0
13
123.266974726
23
3.60247100357
33
0
0
MTEXT
5
A3
100
AcDbEntity
8
Measurements2
6
CONTINUOUS
62
7
370
0
100
AcDbMText
10
141.178085837
20
10.80274605
30
0
40
5
41
22.2222222222
71
5
72
1
1
13.3500
7
standard
210
0
220
0
230
1
50
0
73
2
44
1
0
LINE
5
A4
100
AcDbEntity
8
Measurements2
6
CONTINUOUS
62
7
370
0
100
AcDbLine
10
111.717
20
-27.4205
11
111.717
21
5.10274604997
0
LINE
5
A5
100
AcDbEntity
8
Measurements2
6
CONTINUOUS
62
7
370
0
100
AcDbLine
10
125.066974726
20
-33.45045395
11
125.066974726
21
5.10274604997
0
ENDBLK
5
68
330
66
100
AcDbEntity
8
0
100
AcDbBlockEnd
0
BLOCK
5
6A
330
69
100
AcDbEntity
8
0
100
AcDbBlockBegin
2
*D1
70
1
10
0
20
0
3
*D1
1

0
LINE
5
A6
100
AcDbEntity
8
Measurements
6
CONTINUOUS
62
7
370
0
100
AcDbLine
10
236.790950776
20
-192.512954326
11
236.790950776
21
-6.69725432644
0
SOLID
5
A7
100
AcDbEntity
8
Measurements
6
CONTINUOUS
62
7
370
0
100
AcDbTrace
10
236.790950776
20
-192.512954326
30
0
11
236.491225822
21
-190.712954326
31
0
12
237.09067573
22
-190.712954326
32
0
13
237.09067573
23
-190.712954326
33
0
0
SOLID
5
A8
100
AcDbEntity
8
Measurements
6
CONTINUOUS
62
7
370
0
100
AcDbTrace
10
236.790950776
20
-6.69725432644
30
0
11
237.09067573
21
-8.49725432644
31
0
12
236.491225822
22
-8.49725432644
32
0
13
236.491225822
23
-8.49725432644
33
0
0
MTEXT
5
A9
100
AcDbEntity
8
Measurements
6
CONTINUOUS
62
7
370
0
100
AcDbMText
10
229.290950776
20
-99.6051043264
30
0
40
5
41
25
71
5
72
1
1
185.8157
7
standard
210
0
220
0
230
1
50
90
73
2
44
1
0
LINE
5
AA
100
AcDbEntity
8
Measurements
6
CONTINUOUS
62
7
370
0
100
AcDbLine
10
123.115354337
20
-192.512954326
11
238.590950776
21
-192.512954326
0
LINE
5
AB
100
AcDbEntity
8
Measurements
6
CONTINUOUS
62
7
370
0
100
AcDbLine
10
158.413384266
20
-6.69725432644
11
238.590950776
21
-6.69725432644
0
ENDBLK
5
6B
330
69
100
AcDbEntity
8
0
100
AcDbBlockEnd
0
ENDSEC
0
SECTION
2
ENTITIES
0
SPLINE
5
AC
100
AcDbEntity
8
Outline T-Bone
6
ByLayer
62
256
370
-3
100
AcDbSpline
210
0
220
0
230
1
70
11
71
3
72
1157
73
1153
74
0
42
1e-007
43
1e-007
40
0
40
0
40
0
40
0
40
0.000869565217391
40
0.00173913043478
40
0.00260869565217
40
0.00347826086957
40
0.00434782608696
40
0.00521739130435
40
0.00608695652174
40
0.00695652173913
40
0.00782608695652
40
0.00869565217391
40
0.0095652173913
40
0.0104347826087
40
0.0113043478261
40
0.0121739130435
40
0.0130434782609
40
0.0139130434783
40
0.0147826086957
40
0.015652173913
40
0.0165217391304
40
0.0173913043478
40
0.0182608695652
40
0.0191304347826
40
0.02
40
0.0208695652174
40
0.0217391304348
40
0.0226086956522
40
0.0234782608696
40
0.024347826087
40
0.0252173913043
40
0.0260869565217
40
0.0269565217391
40
0.0278260869565
40
0.0286956521739
40
0.0295652173913
40
0.0304347826087
40
0.0313043478261
40
0.0321739130435
40
0.0330434782609
40
0.0339130434783
40
0.0347826086957
40
0.035652173913
40
0.0365217391304
40
0.0373913043478
40
0.0382608695652
40
0.0391304347826
40
0.04
40
0.0408695652174
40
0.0417391304348
40
0.0426086956522
40
0.0434782608696
40
0.044347826087
40
0.0452173913043
40
0.0460869565217
40
0.0469565217391
40
0.0478260869565
40
0.0486956521739
40
0.0495652173913
40
0.0504347826087
40
0.0513043478261
40
0.0521739130435
40
0.0530434782609
40
0.0539130434783
40
0.0547826086957
40
0.055652173913
40
0.0565217391304
40
0.0573913043478
40
0.0582608695652
40
0.0591304347826
40
0.06
40
0.0608695652174
40
0.0617391304348
40
0.0626086956522
40
0.0634782608696
40
0.064347826087
40
0.0652173913043
40
0.0660869565217
40
0.0669565217391
40
0.0678260869565
40
0.0686956521739
40
0.0695652173913
40
0.0704347826087
40
0.0713043478261
40
0.0721739130435
40
0.0730434782609
40
0.0739130434783
40
0.0747826086957
40
0.075652173913
40
0.0765217391304
40
0.0773913043478
40
0.0782608695652
40
0.0791304347826
40
0.08
40
0.0808695652174
40
0.0817391304348
40
0.0826086956522
40
0.0834782608696
40
0.084347826087
40
0.0852173913043
40
0.0860869565217
40
0.0869565217391
40
0.0878260869565
40
0.0886956521739
40
0.0895652173913
40
0.0904347826087
40
0.0913043478261
40
0.0921739130435
40
0.0930434782609
40
0.0939130434783
40
0.0947826086957
40
0.095652173913
40
0.0965217391304
40
0.0973913043478
40
0.0982608695652
40
0.0991304347826
40
0.1
40
0.100869565217
40
0.101739130435
40
0.102608695652
40
0.10347826087
40
0.104347826087
40
0.105217391304
40
0.106086956522
40
0.106956521739
40
0.107826086957
40
0.108695652174
40
0.109565217391
40
0.110434782609
40
0.111304347826
40
0.112173913043
40
0.113043478261
40
0.113913043478
40
0.114782608696
40
0.115652173913
40
0.11652173913
40
0.117391304348
40
0.118260869565
40
0.119130434783
40
0.12
40
0.120869565217
40
0.121739130435
40
0.122608695652
40
0.12347826087
40
0.124347826087
40
0.125217391304
40
0.126086956522
40
0.126956521739
40
0.127826086957
40
0.128695652174
40
0.129565217391
40
0.130434782609
40
0.131304347826
40
0.132173913043
40
0.133043478261
40
0.133913043478
40
0.134782608696
40
0.135652173913
40
0.13652173913
40
0.137391304348
40
0.138260869565
40
0.139130434783
40
0.14
40
0.140869565217
40
0.141739130435
40
0.142608695652
40
0.14347826087
40
0.144347826087
40
0.145217391304
40
0.146086956522
40
0.146956521739
40
0.147826086957
40
0.148695652174
40
0.149565217391
40
0.150434782609
40
0.151304347826
40
0.152173913043
40
0.153043478261
40
0.153913043478
40
0.154782608696
40
0.155652173913
40
0.15652173913
40
0.157391304348
40
0.158260869565
40
0.159130434783
40
0.16
40
0.160869565217
40
0.161739130435
40
0.162608695652
40
0.16347826087
40
0.164347826087
40
0.165217391304
40
0.166086956522
40
0.166956521739
40
0.167826086957
40
0.168695652174
40
0.169565217391
40
0.170434782609
40
0.171304347826
40
0.172173913043
40
0.173043478261
40
0.173913043478
40
0.174782608696
40
0.175652173913
40
0.17652173913
40
0.177391304348
40
0.178260869565
40
0.179130434783
40
0.18
40
0.180869565217
40
0.181739130435
40
0.182608695652
40
0.18347826087
40
0.184347826087
40
0.185217391304
40
0.186086956522
40
0.186956521739
40
0.187826086957
40
0.188695652174
40
0.189565217391
40
0.190434782609
40
0.191304347826
40
0.192173913043
40
0.193043478261
40
0.193913043478
40
0.194782608696
40
0.195652173913
40
0.19652173913
40
0.197391304348
40
0.198260869565
40
0.199130434783
40
0.2
40
0.200869565217
40
0.201739130435
40
0.202608695652
40
0.20347826087
40
0.204347826087
40
0.205217391304
40
0.206086956522
40
0.206956521739
40
0.207826086957
40
0.208695652174
40
0.209565217391
40
0.210434782609
40
0.211304347826
40
0.212173913043
40
0.213043478261
40
0.213913043478
40
0.214782608696
40
0.215652173913
40
0.21652173913
40
0.217391304348
40
0.218260869565
40
0.219130434783
40
0.22
40
0.220869565217
40
0.221739130435
40
0.222608695652
40
0.22347826087
40
0.224347826087
40
0.225217391304
40
0.226086956522
40
0.226956521739
40
0.227826086957
40
0.228695652174
40
0.229565217391
40
0.230434782609
40
0.231304347826
40
0.232173913043
40
0.233043478261
40
0.233913043478
40
0.234782608696
40
0.235652173913
40
0.23652173913
40
0.237391304348
40
0.238260869565
40
0.239130434783
40
0.24
40
0.240869565217
40
0.241739130435
40
0.242608695652
40
0.24347826087
40
0.244347826087
40
0.245217391304
40
0.246086956522
40
0.246956521739
40
0.247826086957
40
0.248695652174
40
0.249565217391
40
0.250434782609
40
0.251304347826
40
0.252173913043
40
0.253043478261
40
0.253913043478
40
0.254782608696
40
0.255652173913
40
0.25652173913
40
0.257391304348
40
0.258260869565
40
0.259130434783
40
0.26
40
0.260869565217
40
0.261739130435
40
0.262608695652
40
0.26347826087
40
0.264347826087
40
0.265217391304
40
0.266086956522
40
0.266956521739
40
0.267826086957
40
0.268695652174
40
0.269565217391
40
0.270434782609
40
0.271304347826
40
0.272173913043
40
0.273043478261
40
0.273913043478
40
0.274782608696
40
0.275652173913
40
0.27652173913
40
0.277391304348
40
0.278260869565
40
0.279130434783
40
0.28
40
0.280869565217
40
0.281739130435
40
0.282608695652
40
0.28347826087
40
0.284347826087
40
0.285217391304
40
0.286086956522
40
0.286956521739
40
0.287826086957
40
0.288695652174
40
0.289565217391
40
0.290434782609
40
0.291304347826
40
0.292173913043
40
0.293043478261
40
0.293913043478
40
0.294782608696
40
0.295652173913
40
0.29652173913
40
0.297391304348
40
0.298260869565
40
0.299130434783
40
0.3
40
0.300869565217
40
0.301739130435
40
0.302608695652
40
0.30347826087
40
0.304347826087
40
0.305217391304
40
0.306086956522
40
0.306956521739
40
0.307826086957
40
0.308695652174
40
0.309565217391
40
0.310434782609
40
0.311304347826
40
0.312173913043
40
0.313043478261
40
0.313913043478
40
0.314782608696
40
0.315652173913
40
0.31652173913
40
0.317391304348
40
0.318260869565
40
0.319130434783
40
0.32
40
0.320869565217
40
0.321739130435
40
0.322608695652
40
0.32347826087
40
0.324347826087
40
0.325217391304
40
0.326086956522
40
0.326956521739
40
0.327826086957
40
0.328695652174
40
0.329565217391
40
0.330434782609
40
0.331304347826
40
0.332173913043
40
0.333043478261
40
0.333913043478
40
0.334782608696
40
0.335652173913
40
0.33652173913
40
0.337391304348
40
0.338260869565
40
0.339130434783
40
0.34
40
0.340869565217
40
0.341739130435
40
0.342608695652
40
0.34347826087
40
0.344347826087
40
0.345217391304
40
0.346086956522
40
0.346956521739
40
0.347826086957
40
0.348695652174
40
0.349565217391
40
0.350434782609
40
0.351304347826
40
0.352173913043
40
0.353043478261
40
0.353913043478
40
0.354782608696
40
0.355652173913
40
0.35652173913
40
0.357391304348
40
0.358260869565
40
0.359130434783
40
0.36
40
0.360869565217
40
0.361739130435
40
0.362608695652
40
0.36347826087
40
0.364347826087
40
0.365217391304
40
0.366086956522
40
0.366956521739
40
0.367826086957
40
0.368695652174
40
0.369565217391
40
0.370434782609
40
0.371304347826
40
0.372173913043
40
0.373043478261
40
0.373913043478
40
0.374782608696
40
0.375652173913
40
0.37652173913
40
0.377391304348
40
0.378260869565
40
0.379130434783
40
0.38
40
0.380869565217
40
0.381739130435
40
0.382608695652
40
0.38347826087
40
0.384347826087
40
0.385217391304
40
0.386086956522
40
0.386956521739
40
0.387826086957
40
0.388695652174
40
0.389565217391
40
0.390434782609
40
0.391304347826
40
0.392173913043
40
0.393043478261
40
0.393913043478
40
0.394782608696
40
0.395652173913
40
0.39652173913
40
0.397391304348
40
0.398260869565
40
0.399130434783
40
0.4
40
0.400869565217
40
0.401739130435
40
0.402608695652
40
0.40347826087
40
0.404347826087
40
0.405217391304
40
0.406086956522
40
0.406956521739
40
0.407826086957
40
0.408695652174
40
0.409565217391
40
0.410434782609
40
0.411304347826
40
0.412173913043
40
0.413043478261
40
0.413913043478
40
0.414782608696
40
0.415652173913
40
0.41652173913
40
0.417391304348
40
0.418260869565
40
0.419130434783
40
0.42
40
0.420869565217
40
0.421739130435
40
0.422608695652
40
0.42347826087
40
0.424347826087
40
0.425217391304
40
0.426086956522
40
0.426956521739
40
0.427826086957
40
0.428695652174
40
0.429565217391
40
0.430434782609
40
0.431304347826
40
0.432173913043
40
0.433043478261
40
0.433913043478
40
0.434782608696
40
0.435652173913
40
0.43652173913
40
0.437391304348
40
0.438260869565
40
0.439130434783
40
0.44
40
0.440869565217
40
0.441739130435
40
0.442608695652
40
0.44347826087
40
0.444347826087
40
0.445217391304
40
0.446086956522
40
0.446956521739
40
0.447826086957
40
0.448695652174
40
0.449565217391
40
0.450434782609
40
0.451304347826
40
0.452173913043
40
0.453043478261
40
0.453913043478
40
0.454782608696
40
0.455652173913
40
0.45652173913
40
0.457391304348
40
0.458260869565
40
0.459130434783
40
0.46
40
0.460869565217
40
0.461739130435
40
0.462608695652
40
0.46347826087
40
0.464347826087
40
0.465217391304
40
0.466086956522
40
0.466956521739
40
0.467826086957
40
0.468695652174
40
0.469565217391
40
0.470434782609
40
0.471304347826
40
0.472173913043
40
0.473043478261
40
0.473913043478
40
0.474782608696
40
0.475652173913
40
0.47652173913
40
0.477391304348
40
0.478260869565
40
0.479130434783
40
0.48
40
0.480869565217
40
0.481739130435
40
0.482608695652
40
0.48347826087
40
0.484347826087
40
0.485217391304
40
0.486086956522
40
0.486956521739
40
0.487826086957
40
0.488695652174
40
0.489565217391
40
0.490434782609
40
0.491304347826
40
0.492173913043
40
0.493043478261
40
0.493913043478
40
0.494782608696
40
0.495652173913
40
0.49652173913
40
0.497391304348
40
0.498260869565
40
0.499130434783
40
0.5
40
0.500869565217
40
0.501739130435
40
0.502608695652
40
0.50347826087
40
0.504347826087
40
0.505217391304
40
0.506086956522
40
0.506956521739
40
0.507826086957
40
0.508695652174
40
0.509565217391
40
0.510434782609
40
0.511304347826
40
0.512173913043
40
0.513043478261
40
0.513913043478
40
0.514782608696
40
0.515652173913
40
0.51652173913
40
0.517391304348
40
0.518260869565
40
0.519130434783
40
0.52
40
0.520869565217
40
0.521739130435
40
0.522608695652
40
0.52347826087
40
0.524347826087
40
0.525217391304
40
0.526086956522
40
0.526956521739
40
0.527826086957
40
0.528695652174
40
0.529565217391
40
0.530434782609
40
0.531304347826
40
0.532173913043
40
0.533043478261
40
0.533913043478
40
0.534782608696
40
0.535652173913
40
0.53652173913
40
0.537391304348
40
0.538260869565
40
0.539130434783
40
0.54
40
0.540869565217
40
0.541739130435
40
0.542608695652
40
0.54347826087
40
0.544347826087
40
0.545217391304
40
0.546086956522
40
0.546956521739
40
0.547826086957
40
0.548695652174
40
0.549565217391
40
0.550434782609
40
0.551304347826
40
0.552173913043
40
0.553043478261
40
0.553913043478
40
0.554782608696
40
0.555652173913
40
0.55652173913
40
0.557391304348
40
0.558260869565
40
0.559130434783
40
0.56
40
0.560869565217
40
0.561739130435
40
0.562608695652
40
0.56347826087
40
0.564347826087
40
0.565217391304
40
0.566086956522
40
0.566956521739
40
0.567826086957
40
0.568695652174
40
0.569565217391
40
0.570434782609
40
0.571304347826
40
0.572173913043
40
0.573043478261
40
0.573913043478
40
0.574782608696
40
0.575652173913
40
0.57652173913
40
0.577391304348
40
0.578260869565
40
0.579130434783
40
0.58
40
0.580869565217
40
0.581739130435
40
0.582608695652
40
0.58347826087
40
0.584347826087
40
0.585217391304
40
0.586086956522
40
0.586956521739
40
0.587826086957
40
0.588695652174
40
0.589565217391
40
0.590434782609
40
0.591304347826
40
0.592173913043
40
0.593043478261
40
0.593913043478
40
0.594782608696
40
0.595652173913
40
0.59652173913
40
0.597391304348
40
0.598260869565
40
0.599130434783
40
0.6
40
0.600869565217
40
0.601739130435
40
0.602608695652
40
0.60347826087
40
0.604347826087
40
0.605217391304
40
0.606086956522
40
0.606956521739
40
0.607826086957
40
0.608695652174
40
0.609565217391
40
0.610434782609
40
0.611304347826
40
0.612173913043
40
0.613043478261
40
0.613913043478
40
0.614782608696
40
0.615652173913
40
0.61652173913
40
0.617391304348
40
0.618260869565
40
0.619130434783
40
0.62
40
0.620869565217
40
0.621739130435
40
0.622608695652
40
0.62347826087
40
0.624347826087
40
0.625217391304
40
0.626086956522
40
0.626956521739
40
0.627826086957
40
0.628695652174
40
0.629565217391
40
0.630434782609
40
0.631304347826
40
0.632173913043
40
0.633043478261
40
0.633913043478
40
0.634782608696
40
0.635652173913
40
0.63652173913
40
0.637391304348
40
0.638260869565
40
0.639130434783
40
0.64
40
0.640869565217
40
0.641739130435
40
0.642608695652
40
0.64347826087
40
0.644347826087
40
0.645217391304
40
0.646086956522
40
0.646956521739
40
0.647826086957
40
0.648695652174
40
0.649565217391
40
0.650434782609
40
0.651304347826
40
0.652173913043
40
0.653043478261
40
0.653913043478
40
0.654782608696
40
0.655652173913
40
0.65652173913
40
0.657391304348
40
0.658260869565
40
0.659130434783
40
0.66
40
0.660869565217
40
0.661739130435
40
0.662608695652
40
0.66347826087
40
0.664347826087
40
0.665217391304
40
0.666086956522
40
0.666956521739
40
0.667826086957
40
0.668695652174
40
0.669565217391
40
0.670434782609
40
0.671304347826
40
0.672173913043
40
0.673043478261
40
0.673913043478
40
0.674782608696
40
0.675652173913
40
0.67652173913
40
0.677391304348
40
0.678260869565
40
0.679130434783
40
0.68
40
0.680869565217
40
0.681739130435
40
0.682608695652
40
0.68347826087
40
0.684347826087
40
0.685217391304
40
0.686086956522
40
0.686956521739
40
0.687826086957
40
0.688695652174
40
0.689565217391
40
0.690434782609
40
0.691304347826
40
0.692173913043
40
0.693043478261
40
0.693913043478
40
0.694782608696
40
0.695652173913
40
0.69652173913
40
0.697391304348
40
0.698260869565
40
0.699130434783
40
0.7
40
0.700869565217
40
0.701739130435
40
0.702608695652
40
0.70347826087
40
0.704347826087
40
0.705217391304
40
0.706086956522
40
0.706956521739
40
0.707826086957
40
0.708695652174
40
0.709565217391
40
0.710434782609
40
0.711304347826
40
0.712173913043
40
0.713043478261
40
0.713913043478
40
0.714782608696
40
0.715652173913
40
0.71652173913
40
0.717391304348
40
0.718260869565
40
0.719130434783
40
0.72
40
0.720869565217
40
0.721739130435
40
0.722608695652
40
0.72347826087
40
0.724347826087
40
0.725217391304
40
0.726086956522
40
0.726956521739
40
0.727826086957
40
0.728695652174
40
0.729565217391
40
0.730434782609
40
0.731304347826
40
0.732173913043
40
0.733043478261
40
0.733913043478
40
0.734782608696
40
0.735652173913
40
0.73652173913
40
0.737391304348
40
0.738260869565
40
0.739130434783
40
0.74
40
0.740869565217
40
0.741739130435
40
0.742608695652
40
0.74347826087
40
0.744347826087
40
0.745217391304
40
0.746086956522
40
0.746956521739
40
0.747826086957
40
0.748695652174
40
0.749565217391
40
0.750434782609
40
0.751304347826
40
0.752173913043
40
0.753043478261
40
0.753913043478
40
0.754782608696
40
0.755652173913
40
0.75652173913
40
0.757391304348
40
0.758260869565
40
0.759130434783
40
0.76
40
0.760869565217
40
0.761739130435
40
0.762608695652
40
0.76347826087
40
0.764347826087
40
0.765217391304
40
0.766086956522
40
0.766956521739
40
0.767826086957
40
0.768695652174
40
0.769565217391
40
0.770434782609
40
0.771304347826
40
0.772173913043
40
0.773043478261
40
0.773913043478
40
0.774782608696
40
0.775652173913
40
0.77652173913
40
0.777391304348
40
0.778260869565
40
0.779130434783
40
0.78
40
0.780869565217
40
0.781739130435
40
0.782608695652
40
0.78347826087
40
0.784347826087
40
0.785217391304
40
0.786086956522
40
0.786956521739
40
0.787826086957
40
0.788695652174
40
0.789565217391
40
0.790434782609
40
0.791304347826
40
0.792173913043
40
0.793043478261
40
0.793913043478
40
0.794782608696
40
0.795652173913
40
0.79652173913
40
0.797391304348
40
0.798260869565
40
0.799130434783
40
0.8
40
0.800869565217
40
0.801739130435
40
0.802608695652
40
0.80347826087
40
0.804347826087
40
0.805217391304
40
0.806086956522
40
0.806956521739
40
0.807826086957
40
0.808695652174
40
0.809565217391
40
0.810434782609
40
0.811304347826
40
0.812173913043
40
0.813043478261
40
0.813913043478
40
0.814782608696
40
0.815652173913
40
0.81652173913
40
0.817391304348
40
0.818260869565
40
0.819130434783
40
0.82
40
0.820869565217
40
0.821739130435
40
0.822608695652
40
0.82347826087
40
0.824347826087
40
0.825217391304
40
0.826086956522
40
0.826956521739
40
0.827826086957
40
0.828695652174
40
0.829565217391
40
0.830434782609
40
0.831304347826
40
0.832173913043
40
0.833043478261
40
0.833913043478
40
0.834782608696
40
0.835652173913
40
0.83652173913
40
0.837391304348
40
0.838260869565
40
0.839130434783
40
0.84
40
0.840869565217
40
0.841739130435
40
0.842608695652
40
0.84347826087
40
0.844347826087
40
0.845217391304
40
0.846086956522
40
0.846956521739
40
0.847826086957
40
0.848695652174
40
0.849565217391
40
0.850434782609
40
0.851304347826
40
0.852173913043
40
0.853043478261
40
0.853913043478
40
0.854782608696
40
0.855652173913
40
0.85652173913
40
0.857391304348
40
0.858260869565
40
0.859130434783
40
0.86
40
0.860869565217
40
0.861739130435
40
0.862608695652
40
0.86347826087
40
0.864347826087
40
0.865217391304
40
0.866086956522
40
0.866956521739
40
0.867826086957
40
0.868695652174
40
0.869565217391
40
0.870434782609
40
0.871304347826
40
0.872173913043
40
0.873043478261
40
0.873913043478
40
0.874782608696
40
0.875652173913
40
0.87652173913
40
0.877391304348
40
0.878260869565
40
0.879130434783
40
0.88
40
0.880869565217
40
0.881739130435
40
0.882608695652
40
0.88347826087
40
0.884347826087
40
0.885217391304
40
0.886086956522
40
0.886956521739
40
0.887826086957
40
0.888695652174
40
0.889565217391
40
0.890434782609
40
0.891304347826
40
0.892173913043
40
0.893043478261
40
0.893913043478
40
0.894782608696
40
0.895652173913
40
0.89652173913
40
0.897391304348
40
0.898260869565
40
0.899130434783
40
0.9
40
0.900869565217
40
0.901739130435
40
0.902608695652
40
0.90347826087
40
0.904347826087
40
0.905217391304
40
0.906086956522
40
0.906956521739
40
0.907826086957
40
0.908695652174
40
0.909565217391
40
0.910434782609
40
0.911304347826
40
0.912173913043
40
0.913043478261
40
0.913913043478
40
0.914782608696
40
0.915652173913
40
0.91652173913
40
0.917391304348
40
0.918260869565
40
0.919130434783
40
0.92
40
0.920869565217
40
0.921739130435
40
0.922608695652
40
0.92347826087
40
0.924347826087
40
0.925217391304
40
0.926086956522
40
0.926956521739
40
0.927826086957
40
0.928695652174
40
0.929565217391
40
0.930434782609
40
0.931304347826
40
0.932173913043
40
0.933043478261
40
0.933913043478
40
0.934782608696
40
0.935652173913
40
0.93652173913
40
0.937391304348
40
0.938260869565
40
0.939130434783
40
0.94
40
0.940869565217
40
0.941739130435
40
0.942608695652
40
0.94347826087
40
0.944347826087
40
0.945217391304
40
0.946086956522
40
0.946956521739
40
0.947826086957
40
0.948695652174
40
0.949565217391
40
0.950434782609
40
0.951304347826
40
0.952173913043
40
0.953043478261
40
0.953913043478
40
0.954782608696
40
0.955652173913
40
0.95652173913
40
0.957391304348
40
0.958260869565
40
0.959130434783
40
0.96
40
0.960869565217
40
0.961739130435
40
0.962608695652
40
0.96347826087
40
0.964347826087
40
0.965217391304
40
0.966086956522
40
0.966956521739
40
0.967826086957
40
0.968695652174
40
0.969565217391
40
0.970434782609
40
0.971304347826
40
0.972173913043
40
0.973043478261
40
0.973913043478
40
0.974782608696
40
0.975652173913
40
0.97652173913
40
0.977391304348
40
0.978260869565
40
0.979130434783
40
0.98
40
0.980869565217
40
0.981739130435
40
0.982608695652
40
0.98347826087
40
0.984347826087
40
0.985217391304
40
0.986086956522
40
0.986956521739
40
0.987826086957
40
0.988695652174
40
0.989565217391
40
0.990434782609
40
0.991304347826
40
0.992173913043
40
0.993043478261
40
0.993913043478
40
0.994782608696
40
0.995652173913
40
0.99652173913
40
0.997391304348
40
0.998260869565
40
0.999130434783
40
1
40
1
40
1
40
1
10
125.075532958
20
-11.5129560533
30
0
10
125.095750507
20
-11.3301745733
30
0
10
125.071847372
20
-11.154273108
30
0
10
125.006223916
20
-10.9853475874
30
0
10
124.940600461
20
-10.8164220668
30
0
10
124.833256684
20
-10.6544724909
30
0
10
124.686592948
20
-10.4995947897
30
0
10
124.539929213
20
-10.3447170885
30
0
10
124.353945519
20
-10.196911262
30
0
10
124.131042229
20
-10.0562732401
30
0
10
123.908138939
20
-9.91563521825
30
0
10
123.648316053
20
-9.78216500103
30
0
10
123.353973933
20
-9.65595851844
30
0
10
123.059631813
20
-9.52975203584
30
0
10
122.73077046
20
-9.41080928788
30
0
10
122.369790235
20
-9.29922620451
30
0
10
122.008810011
20
-9.18764312115
30
0
10
121.615710915
20
-9.08341970238
30
0
10
121.19289331
20
-8.98665187819
30
0
10
120.770075706
20
-8.889884054
30
0
10
120.317539592
20
-8.80057182439
30
0
10
119.837685333
20
-8.71881111933
30
0
10
119.357831073
20
-8.63705041427
30
0
10
118.850658667
20
-8.56284123376
30
0
10
118.318568477
20
-8.49627950777
30
0
10
117.786478288
20
-8.42971778178
30
0
10
117.229470314
20
-8.37080351032
30
0
10
116.649944919
20
-8.31963262336
30
0
10
116.070419524
20
-8.2684617364
30
0
10
115.468376708
20
-8.22503423393
30
0
10
114.846216832
20
-8.18944604594
30
0
10
114.224056957
20
-8.15385785795
30
0
10
113.581780023
20
-8.12610898444
30
0
10
112.921786392
20
-8.10629535537
30
0
10
112.261792761
20
-8.08648172631
30
0
10
111.584082434
20
-8.07460334169
30
0
10
110.891055773
20
-8.07075613149
30
0
10
110.198029112
20
-8.0669089213
30
0
10
109.489686116
20
-8.07109288553
30
0
10
108.768427149
20
-8.08340395415
30
0
10
108.047168183
20
-8.09571502278
30
0
10
107.312993244
20
-8.1161531958
30
0
10
106.568302697
20
-8.1448144032
30
0
10
105.823612149
20
-8.1734756106
30
0
10
105.068405993
20
-8.21035985236
30
0
10
104.305084589
20
-8.25556305848
30
0
10
103.541763186
20
-8.30076626459
30
0
10
102.770326536
20
-8.35428843505
30
0
10
101.993175002
20
-8.41622549984
30
0
10
101.216023468
20
-8.47816256462
30
0
10
100.433157049
20
-8.54851452372
30
0
10
99.6469761092
20
-8.62737730712
30
0
10
98.8607951691
20
-8.70624009052
30
0
10
98.0712997072
20
-8.79361369822
30
0
10
97.2808900861
20
-8.88959406019
30
0
10
96.4904804649
20
-8.98557442215
30
0
10
95.6991566845
20
-9.09016153839
30
0
10
94.9093191071
20
-9.20345133887
30
0
10
94.1194815298
20
-9.31674113935
30
0
10
93.3311301557
20
-9.43873362408
30
0
10
92.5466653472
20
-9.56952472303
30
0
10
91.7622005386
20
-9.70031582197
30
0
10
90.9816222957
20
-9.83990553514
30
0
10
90.2073309808
20
-9.9883897925
30
0
10
89.433039666
20
-10.1368740499
30
0
10
88.6650352792
20
-10.2942528514
30
0
10
87.9057181829
20
-10.4606221271
30
0
10
87.1464010866
20
-10.6269914029
30
0
10
86.3957712809
20
-10.8023511527
30
0
10
85.6562291281
20
-10.9867973068
30
0
10
84.9166869753
20
-11.1712434608
30
0
10
84.1882324755
20
-11.364776019
30
0
10
83.4732659911
20
-11.5674909113
30
0
10
82.7582995067
20
-11.7702058036
30
0
10
82.0568210378
20
-11.98210303
30
0
10
81.3712309467
20
-12.2032785205
30
0
10
80.6856408556
20
-12.424454011
30
0
10
80.0159391425
20
-12.6549077656
30
0
10
79.3645261696
20
-12.8947357143
30
0
10
78.7131131968
20
-13.1345636629
30
0
10
78.0799889642
20
-13.3837658057
30
0
10
77.4675538345
20
-13.6424380724
30
0
10
76.8551187048
20
-13.9011103392
30
0
10
76.2633726779
20
-14.16925273
30
0
10
75.6947161162
20
-14.4469611749
30
0
10
75.1260595545
20
-14.7246696197
30
0
10
74.5804924581
20
-15.0119441185
30
0
10
74.0604151893
20
-15.3088806014
30
0
10
73.5403379206
20
-15.6058170842
30
0
10
73.0457504795
20
-15.912415551
30
0
10
72.5790532287
20
-16.2287719318
30
0
10
72.1123559778
20
-16.5451283126
30
0
10
71.673548917
20
-16.8712426074
30
0
10
71.2650324089
20
-17.2072107461
30
0
10
70.8565159008
20
-17.5431788848
30
0
10
70.4782899453
20
-17.8890008674
30
0
10
70.1327549048
20
-18.2447726239
30
0
10
70.1327549048
20
-18.2447726239
30
0
10
70.1327549048
20
-18.2447726239
30
0
10
70.1327549048
20
-18.2447726239
30
0
10
70.1327549048
20
-18.2447726239
30
0
10
70.1327549048
20
-18.2447726239
30
0
10
70.1327549048
20
-18.2447726239
30
0
10
70.1327549048
20
-18.2447726239
30
0
10
70.1327549048
20
-18.2447726239
30
0
10
70.1327549048
20
-18.2447726239
30
0
10
70.1327549048
20
-18.2447726239
30
0
10
70.1327549048
20
-18.2447726239
30
0
10
70.1327549048
20
-18.2447726239
30
0
10
70.1327549048
20
-18.2447726239
30
0
10
70.1327549048
20
-18.2447726239
30
0
10
70.1327549048
20
-18.2447726239
30
0
10
70.1327549048
20
-18.2447726239
30
0
10
70.1327549048
20
-18.2447726239
30
0
10
70.1327549048
20
-18.2447726239
30
0
10
70.1327549048
20
-18.2447726239
30
0
10
70.1327549048
20
-18.2447726239
30
0
10
70.1327549048
20
-18.2447726239
30
0
10
70.1327549048
20
-18.2447726239
30
0
10
70.1327549048
20
-18.2447726239
30
0
10
70.1327549048
20
-18.2447726239
30
0
10
70.1327549048
20
-18.2447726239
30
0
10
70.1327549048
20
-18.2447726239
30
0
10
70.1327549048
20
-18.2447726239
30
0
10
70.1327549048
20
-18.2447726239
30
0
10
70.1327549048
20
-18.2447726239
30
0
10
70.1327549048
20
-18.2447726239
30
0
10
70.1327549048
20
-18.2447726239
30
0
10
70.1327549048
20
-18.2447726239
30
0
10
70.1327549048
20
-18.2447726239
30
0
10
70.1327549048
20
-18.2447726239
30
0
10
70.1327549048
20
-18.2447726239
30
0
10
70.1327549048
20
-18.2447726239
30
0
10
70.1327549048
20
-18.2447726239
30
0
10
70.1327549048
20
-18.2447726239
30
0
10
70.1327549048
20
-18.2447726239
30
0
10
70.1327549048
20
-18.2447726239
30
0
10
70.1327549048
20
-18.2447726239
30
0
10
70.1327549048
20
-18.2447726239
30
0
10
70.1327549048
20
-18.2447726239
30
0
10
70.1327549048
20
-18.2447726239
30
0
10
70.1327549048
20
-18.2447726239
30
0
10
70.1327549048
20
-18.2447726239
30
0
10
70.1327549048
20
-18.2447726239
30
0
10
70.1327549048
20
-18.2447726239
30
0
10
70.1327549048
20
-18.2447726239
30
0
10
70.1327549048
20
-18.2447726239
30
0
10
70.1327549048
20
-18.2447726239
30
0
10
70.1327549048
20
-18.2447726239
30
0
10
70.1327549048
20
-18.2447726239
30
0
10
70.1327549048
20
-18.2447726239
30
0
10
70.1327549048
20
-18.2447726239
30
0
10
70.1327549048
20
-18.2447726239
30
0
10
70.1327549048
20
-18.2447726239
30
0
10
70.1327549048
20
-18.2447726239
30
0
10
70.1327549048
20
-18.2447726239
30
0
10
70.1327549048
20
-18.2447726239
30
0
10
70.1327549048
20
-18.2447726239
30
0
10
70.1327549048
20
-18.2447726239
30
0
10
70.1327549048
20
-18.2447726239
30
0
10
70.1327549048
20
-18.2447726239
30
0
10
70.1327549048
20
-18.2447726239
30
0
10
70.1327549048
20
-18.2447726239
30
0
10
70.1327549048
20
-18.2447726239
30
0
10
70.1327549048
20
-18.2447726239
30
0
10
70.1327549048
20
-18.2447726239
30
0
10
70.1327549048
20
-18.2447726239
30
0
10
70.1327549048
20
-18.2447726239
30
0
10
70.1327549048
20
-18.2447726239
30
0
10
70.1327549048
20
-18.2447726239
30
0
10
70.1327549048
20
-18.2447726239
30
0
10
70.1327549048
20
-18.2447726239
30
0
10
70.1327549048
20
-18.2447726239
30
0
10
70.1327549048
20
-18.2447726239
30
0
10
70.1327549048
20
-18.2447726239
30
0
10
70.1327549048
20
-18.2447726239
30
0
10
70.1327549048
20
-18.2447726239
30
0
10
70.1327549048
20
-18.2447726239
30
0
10
70.1327549048
20
-18.2447726239
30
0
10
70.1327549048
20
-18.2447726239
30
0
10
70.1327549048
20
-18.2447726239
30
0
10
70.1327549048
20
-18.2447726239
30
0
10
70.1327549048
20
-18.2447726239
30
0
10
70.1327549048
20
-18.2447726239
30
0
10
70.1327549048
20
-18.2447726239
30
0
10
70.1327549048
20
-18.2447726239
30
0
10
70.1327549048
20
-18.2447726239
30
0
10
70.1327549048
20
-18.2447726239
30
0
10
70.1327549048
20
-18.2447726239
30
0
10
70.1327549048
20
-18.2447726239
30
0
10
70.1327549048
20
-18.2447726239
30
0
10
70.1327549048
20
-18.2447726239
30
0
10
70.1327549048
20
-18.2447726239
30
0
10
69.6931701729
20
-18.8205565095
30
0
10
69.2735037707
20
-19.3999387917
30
0
10
68.8730455579
20
-19.9824325658
30
0
10
68.4725873452
20
-20.5649263399
30
0
10
68.0913373219
20
-21.1505316059
30
0
10
67.7285853477
20
-21.738761459
30
0
10
67.3658333735
20
-22.3269913121
30
0
10
67.0215794485
20
-22.9178457523
30
0
10
66.6951134323
20
-23.5108378747
30
0
10
66.368647416
20
-24.1038299971
30
0
10
66.0599693086
20
-24.6989598018
30
0
10
65.7683689697
20
-25.2957403839
30
0
10
65.4767686308
20
-25.892520966
30
0
10
65.2022460604
20
-26.4909523256
30
0
10
64.9440911182
20
-27.0905475578
30
0
10
64.685936176
20
-27.69014279
30
0
10
64.444148862
20
-28.2909018949
30
0
10
64.2180190358
20
-28.8923379675
30
0
10
63.9918892097
20
-29.4937740402
30
0
10
63.7814168714
20
-30.0958870807
30
0
10
63.5858918806
20
-30.6981901842
30
0
10
63.3903668899
20
-31.3004932876
30
0
10
63.2097892468
20
-31.9029864541
30
0
10
63.0434488108
20
-32.5051827788
30
0
10
62.8771083749
20
-33.1073791035
30
0
10
62.7250051462
20
-33.7092785863
30
0
10
62.5864289845
20
-34.3103943225
30
0
10
62.4478528227
20
-34.9115100588
30
0
10
62.3228037279
20
-35.5118420484
30
0
10
62.2105715597
20
-36.1109033865
30
0
10
62.0983393915
20
-36.7099647247
30
0
10
61.9989241499
20
-37.3077554114
30
0
10
61.9116156946
20
-37.9037885419
30
0
10
61.8243072394
20
-38.4998216723
30
0
10
61.7491055704
20
-39.0940972465
30
0
10
61.6853005474
20
-39.6861283596
30
0
10
61.6214955244
20
-40.2781594728
30
0
10
61.5690871474
20
-40.8679461248
30
0
10
61.527365276
20
-41.455001411
30
0
10
61.4856434047
20
-42.0420566971
30
0
10
61.454608039
20
-42.6263806174
30
0
10
61.4335490387
20
-43.207486267
30
0
10
61.4124900384
20
-43.7885919166
30
0
10
61.4014074034
20
-44.3664792955
30
0
10
61.3995909935
20
-44.9406614988
30
0
10
61.3977745836
20
-45.5148437022
30
0
10
61.4052243987
20
-46.08532073
30
0
10
61.4212302986
20
-46.6516056775
30
0
10
61.4372361984
20
-47.217890625
30
0
10
61.461798183
20
-47.7799834922
30
0
10
61.494206112
20
-48.3373973742
30
0
10
61.526614041
20
-48.8948112563
30
0
10
61.5668679145
20
-49.4475461531
30
0
10
61.614257592
20
-49.9951151601
30
0
10
61.6616472695
20
-50.542684167
30
0
10
61.7161727511
20
-51.0850872839
30
0
10
61.7771238965
20
-51.6218376061
30
0
10
61.8380750419
20
-52.1585879283
30
0
10
61.9054518511
20
-52.6896854557
30
0
10
61.9785441837
20
-53.2146432835
30
0
10
62.0516365164
20
-53.7396011113
30
0
10
62.1304443725
20
-54.2584192395
30
0
10
62.2142576118
20
-54.7706107633
30
0
10
62.2980708511
20
-55.2828022871
30
0
10
62.3868894735
20
-55.7883672066
30
0
10
62.4800033388
20
-56.2868186167
30
0
10
62.5731172041
20
-56.7852700269
30
0
10
62.6705263122
20
-57.2766079279
30
0
10
62.7715205229
20
-57.7603454148
30
0
10
62.8725147335
20
-58.2440829017
30
0
10
62.9770940467
20
-58.7202199746
30
0
10
63.0845483221
20
-59.1882697287
30
0
10
63.1920025975
20
-59.6563194827
30
0
10
63.3023318351
20
-60.1162819179
30
0
10
63.4148258946
20
-60.5676701294
30
0
10
63.5273199541
20
-61.0190583409
30
0
10
63.6419788355
20
-61.4618723288
30
0
10
63.7580923985
20
-61.8956251881
30
0
10
63.8742059615
20
-62.3293780475
30
0
10
63.991774206
20
-62.7540697784
30
0
10
64.1100869919
20
-63.169213476
30
0
10
64.2283997777
20
-63.5843571736
30
0
10
64.3474571048
20
-63.9899528379
30
0
10
64.4665488329
20
-64.385513564
30
0
10
64.585640561
20
-64.7810742902
30
0
10
64.70476669
20
-65.1666000783
30
0
10
64.8232170796
20
-65.5416040234
30
0
10
64.9416674693
20
-65.9166079686
30
0
10
65.0594421196
20
-66.2810900708
30
0
10
65.1758308902
20
-66.6345634253
30
0
10
65.2922196609
20
-66.9880367798
30
0
10
65.4072225518
20
-67.3305013865
30
0
10
65.5201294228
20
-67.6614703407
30
0
10
65.6330362937
20
-67.9924392949
30
0
10
65.7438471447
20
-68.3119125965
30
0
10
65.8518518354
20
-68.6194033407
30
0
10
65.9768629208
20
-68.9574565527
30
0
10
66.1033435582
20
-69.2937054299
30
0
10
66.2310481158
20
-69.628468006
30
0
10
66.3587526735
20
-69.9632305822
30
0
10
66.4876811514
20
-70.2965068574
30
0
10
66.6175879177
20
-70.6286148653
30
0
10
66.7474946841
20
-70.9607228733
30
0
10
66.8783797389
20
-71.291662614
30
0
10
67.0099974505
20
-71.6217521213
30
0
10
67.1416151621
20
-71.9518416285
30
0
10
67.2739655304
20
-72.2810809023
30
0
10
67.4068029237
20
-72.6097879764
30
0
10
67.539640317
20
-72.9384950505
30
0
10
67.6729647352
20
-73.266669925
30
0
10
67.8065305467
20
-73.5946306335
30
0
10
67.9400963582
20
-73.922591342
30
0
10
68.073903563
20
-74.2503378846
30
0
10
68.2077065292
20
-74.578188295
30
0
10
68.3415094954
20
-74.9060387055
30
0
10
68.4753082231
20
-75.2339929838
30
0
10
68.6088570805
20
-75.5623691637
30
0
10
68.7424059379
20
-75.8907453436
30
0
10
68.875704925
20
-76.2195434252
30
0
10
69.0085084101
20
-76.5490814422
30
0
10
69.1413118953
20
-76.8786194591
30
0
10
69.2736198783
20
-77.2088974115
30
0
10
69.4051867276
20
-77.540233333
30
0
10
69.536753577
20
-77.8715692546
30
0
10
69.6675792925
20
-78.2039631453
30
0
10
69.7974182425
20
-78.5377330389
30
0
10
69.9272571925
20
-78.8715029326
30
0
10
70.0561093769
20
-79.2066488292
30
0
10
70.1837291641
20
-79.5434887625
30
0
10
70.3113489513
20
-79.8803286958
30
0
10
70.4377363412
20
-80.2188626659
30
0
10
70.5626457021
20
-80.5594087064
30
0
10
70.687555063
20
-80.8999547469
30
0
10
70.8109863948
20
-81.2425128579
30
0
10
70.9326940659
20
-81.5874010732
30
0
10
71.0544017369
20
-81.9322892885
30
0
10
71.1743857472
20
-82.279507608
30
0
10
71.2924004649
20
-82.6293740656
30
0
10
71.4104151826
20
-82.9792405231
30
0
10
71.5264606078
20
-83.3317551187
30
0
10
71.6402911087
20
-83.6872358861
30
0
10
71.7541216096
20
-84.0427166535
30
0
10
71.8657371863
20
-84.4011635927
30
0
10
71.9748922068
20
-84.7628947375
30
0
10
72.0840472274
20
-85.1246258823
30
0
10
72.190741692
20
-85.4896412327
30
0
10
72.2947299687
20
-85.8582588224
30
0
10
72.3987182454
20
-86.2268764121
30
0
10
72.5000003344
20
-86.5990962411
30
0
10
72.5983306038
20
-86.9752363433
30
0
10
72.6966608732
20
-87.3513764455
30
0
10
72.7920393231
20
-87.7314368208
30
0
10
72.8842203216
20
-88.115735503
30
0
10
72.9764013202
20
-88.5000341851
30
0
10
73.0653848675
20
-88.8885711742
30
0
10
73.1509253317
20
-89.281664504
30
0
10
73.2364657959
20
-89.6747578337
30
0
10
73.3185631771
20
-90.0724075041
30
0
10
73.3969718435
20
-90.474931549
30
0
10
73.4753805098
20
-90.8774555938
30
0
10
73.5501004614
20
-91.2848540131
30
0
10
73.6208860664
20
-91.6974448406
30
0
10
73.6916716715
20
-92.1100356681
30
0
10
73.7585229299
20
-92.5278189037
30
0
10
73.8211942101
20
-92.9511125814
30
0
10
73.8838654903
20
-93.3744062591
30
0
10
73.9423567921
20
-93.8032103787
30
0
10
73.996422484
20
-94.2378429742
30
0
10
74.0504881758
20
-94.6724755696
30
0
10
74.1001282575
20
-95.1129366407
30
0
10
74.1450970975
20
-95.5595442214
30
0
10
74.1900659374
20
-96.0061518021
30
0
10
74.2303635356
20
-96.4589058923
30
0
10
74.2657442601
20
-96.9181245258
30
0
10
74.3011249847
20
-97.3773431593
30
0
10
74.3315888358
20
-97.8430263361
30
0
10
74.3568901815
20
-98.3154920899
30
0
10
74.3821915272
20
-98.7879578438
30
0
10
74.4023303676
20
-99.2672061747
30
0
10
74.4170610709
20
-99.7535551165
30
0
10
74.4317917743
20
-100.239904058
30
0
10
74.4411143406
20
-100.733353611
30
0
10
74.444783138
20
-101.234221808
30
0
10
74.4484519355
20
-101.735090005
30
0
10
74.4464669641
20
-102.243376847
30
0
10
74.4385825922
20
-102.759400367
30
0
10
74.4306982203
20
-103.275423888
30
0
10
74.4169144478
20
-103.799184086
30
0
10
74.396985643
20
-104.330998997
30
0
10
74.3770568382
20
-104.862813908
30
0
10
74.3509830011
20
-105.402683531
30
0
10
74.3185184999
20
-105.950925899
30
0
10
74.2935884368
20
-106.43182908
30
0
10
74.2698244094
20
-106.951577721
30
0
10
74.2476731186
20
-107.507525555
30
0
10
74.2255218279
20
-108.063473389
30
0
10
74.2049832738
20
-108.655620416
30
0
10
74.1865041575
20
-109.281320366
30
0
10
74.1680250411
20
-109.907020316
30
0
10
74.1516053625
20
-110.566273191
30
0
10
74.1376918226
20
-111.256432721
30
0
10
74.1237782827
20
-111.946592251
30
0
10
74.1123708815
20
-112.667658437
30
0
10
74.10391632
20
-113.416985009
30
0
10
74.0954617585
20
-114.166311582
30
0
10
74.0899600368
20
-114.943898542
30
0
10
74.0878578558
20
-115.747099621
30
0
10
74.0857556748
20
-116.5503007
30
0
10
74.0870530345
20
-117.379115897
30
0
10
74.092196636
20
-118.230898945
30
0
10
74.0973402375
20
-119.082681993
30
0
10
74.1063300807
20
-119.957432891
30
0
10
74.1196128667
20
-120.85250537
30
0
10
74.1328956527
20
-121.74757785
30
0
10
74.1504713814
20
-122.662971912
30
0
10
74.1727867539
20
-123.596041287
30
0
10
74.1951021264
20
-124.529110662
30
0
10
74.2221571427
20
-125.479855351
30
0
10
74.2543985038
20
-126.445629084
30
0
10
74.2866398649
20
-127.411402817
30
0
10
74.3240675707
20
-128.392205596
30
0
10
74.3671283223
20
-129.385391151
30
0
10
74.410189074
20
-130.378576706
30
0
10
74.4588828714
20
-131.384145037
30
0
10
74.5136564156
20
-132.399449876
30
0
10
74.5684299599
20
-133.414754716
30
0
10
74.6292832509
20
-134.439796063
30
0
10
74.6966629897
20
-135.471927651
30
0
10
74.7640427286
20
-136.504059238
30
0
10
74.8379489152
20
-137.543281065
30
0
10
74.9188282507
20
-138.586946863
30
0
10
74.9997075862
20
-139.630612661
30
0
10
75.0875600705
20
-140.67872243
30
0
10
75.1828324046
20
-141.728629902
30
0
10
75.2781047387
20
-142.778537374
30
0
10
75.3807969227
20
-143.830242549
30
0
10
75.4913556575
20
-144.881099158
30
0
10
75.6019143923
20
-145.931955767
30
0
10
75.7203396779
20
-146.98196381
30
0
10
75.8470782154
20
-148.028477019
30
0
10
75.9738167529
20
-149.074990228
30
0
10
76.1088685422
20
-150.118008604
30
0
10
76.2526802844
20
-151.154885876
30
0
10
76.3964920267
20
-152.191763149
30
0
10
76.5490637217
20
-153.222499318
30
0
10
76.7108420707
20
-154.244448117
30
0
10
76.8726204196
20
-155.266396916
30
0
10
77.0436054224
20
-156.279558344
30
0
10
77.2242437801
20
-157.281286133
30
0
10
77.4048821378
20
-158.283013921
30
0
10
77.5951738504
20
-159.27330807
30
0
10
77.7955656189
20
-160.249522311
30
0
10
77.9959573874
20
-161.225736553
30
0
10
78.2064492117
20
-162.187870886
30
0
10
78.427487793
20
-163.133279043
30
0
10
78.6485263743
20
-164.0786872
30
0
10
78.8801117125
20
-165.00736918
30
0
10
79.1226905086
20
-165.916678716
30
0
10
79.3652693047
20
-166.825988252
30
0
10
79.6188415587
20
-167.715925343
30
0
10
79.8838539716
20
-168.583843721
30
0
10
80.1488663846
20
-169.451762098
30
0
10
80.4253189564
20
-170.297661763
30
0
10
80.7136583882
20
-171.118896446
30
0
10
81.00199782
20
-171.940131129
30
0
10
81.3022241117
20
-172.73670083
30
0
10
81.6147839644
20
-173.505959281
30
0
10
81.9273438171
20
-174.275217732
30
0
10
82.2522372307
20
-175.017164934
30
0
10
82.5899109063
20
-175.729154616
30
0
10
82.9275845819
20
-176.441144299
30
0
10
83.2780385194
20
-177.123176463
30
0
10
83.6417194199
20
-177.77260484
30
0
10
84.0054003204
20
-178.422033217
30
0
10
84.3823081839
20
-179.038857807
30
0
10
84.7728897113
20
-179.620432341
30
0
10
85.1634712388
20
-180.202006876
30
0
10
85.5677264302
20
-180.748331355
30
0
10
85.9861019866
20
-181.256759511
30
0
10
86.404477543
20
-181.765187666
30
0
10
86.8369734644
20
-182.235719498
30
0
10
87.2840364518
20
-182.665708737
30
0
10
87.7310994392
20
-183.095697976
30
0
10
88.1927294926
20
-183.485144623
30
0
10
88.669373313
20
-183.831402409
30
0
10
89.1460171334
20
-184.177660195
30
0
10
89.6376747208
20
-184.480729121
30
0
10
90.1447927763
20
-184.737962917
30
0
10
90.5957060484
20
-184.982407446
30
0
10
91.0682489353
20
-185.227578261
30
0
10
91.5610442765
20
-185.472368149
30
0
10
92.0538396177
20
-185.717158036
30
0
10
92.5668874133
20
-185.961566996
30
0
10
93.0988105029
20
-186.204487815
30
0
10
93.6307335925
20
-186.447408635
30
0
10
94.181531976
20
-186.688841313
30
0
10
94.7498284931
20
-186.927678638
30
0
10
95.3181250102
20
-187.166515963
30
0
10
95.9039196609
20
-187.402757934
30
0
10
96.5058352848
20
-187.635297338
30
0
10
97.1077509087
20
-187.867836743
30
0
10
97.7257875058
20
-188.09667358
30
0
10
98.3585679157
20
-188.320700638
30
0
10
98.9913483256
20
-188.544727696
30
0
10
99.6388725483
20
-188.763944974
30
0
10
100.299763423
20
-188.97724526
30
0
10
100.960654299
20
-189.190545545
30
0
10
101.634911826
20
-189.397928837
30
0
10
102.321158846
20
-189.598287924
30
0
10
103.007405865
20
-189.79864701
30
0
10
103.705642377
20
-189.991981891
30
0
10
104.41449122
20
-190.177185353
30
0
10
105.123340063
20
-190.362388815
30
0
10
105.842801238
20
-190.539460857
30
0
10
106.571497584
20
-190.707294268
30
0
10
107.300193931
20
-190.875127679
30
0
10
108.038125448
20
-191.033722458
30
0
10
108.783914976
20
-191.181971392
30
0
10
109.529704505
20
-191.330220326
30
0
10
110.283352044
20
-191.468123415
30
0
10
111.043480433
20
-191.594573446
30
0
10
111.803608823
20
-191.721023477
30
0
10
112.570218063
20
-191.836020449
30
0
10
113.341930993
20
-191.938457151
30
0
10
114.113643923
20
-192.040893853
30
0
10
114.890460544
20
-192.130770283
30
0
10
115.671003694
20
-192.20697923
30
0
10
116.451546844
20
-192.283188176
30
0
10
117.235816523
20
-192.345729639
30
0
10
118.022435572
20
-192.393496404
30
0
10
118.809054621
20
-192.441263169
30
0
10
119.59802304
20
-192.474255237
30
0
10
120.387963667
20
-192.491365395
30
0
10
121.177904294
20
-192.508475552
30
0
10
121.96881713
20
-192.5097038
30
0
10
122.759325015
20
-192.493942924
30
0
10
123.5498329
20
-192.478182048
30
0
10
124.339935833
20
-192.445432049
30
0
10
125.128256655
20
-192.394585714
30
0
10
125.916577476
20
-192.343739379
30
0
10
126.703116186
20
-192.274796707
30
0
10
127.486495623
20
-192.186650486
30
0
10
128.26987506
20
-192.098504265
30
0
10
129.050095225
20
-191.991154494
30
0
10
129.825778958
20
-191.863493962
30
0
10
130.60146269
20
-191.735833429
30
0
10
131.37260999
20
-191.587862134
30
0
10
132.137843697
20
-191.418472863
30
0
10
132.903077404
20
-191.249083592
30
0
10
133.662397518
20
-191.058276346
30
0
10
134.414426878
20
-190.844943912
30
0
10
135.166456239
20
-190.631611477
30
0
10
135.911194846
20
-190.395753854
30
0
10
136.647265539
20
-190.136263829
30
0
10
137.383336232
20
-189.876773805
30
0
10
138.110739012
20
-189.593651379
30
0
10
138.828096717
20
-189.285789338
30
0
10
139.545454422
20
-188.977927297
30
0
10
140.252767054
20
-188.645325642
30
0
10
140.94865745
20
-188.286877159
30
0
10
141.644547847
20
-187.928428676
30
0
10
142.329016009
20
-187.544133366
30
0
10
143.000684776
20
-187.132884014
30
0
10
143.672353543
20
-186.721634663
30
0
10
144.331222915
20
-186.283431271
30
0
10
144.975915732
20
-185.817166626
30
0
10
145.620608548
20
-185.35090198
30
0
10
146.25112481
20
-184.856576081
30
0
10
146.866087356
20
-184.333081715
30
0
10
147.481049901
20
-183.809587348
30
0
10
148.080458731
20
-183.256924516
30
0
10
148.662936685
20
-182.673986003
30
0
10
149.245414639
20
-182.09104749
30
0
10
149.810961717
20
-181.477833298
30
0
10
150.358200758
20
-180.833236213
30
0
10
150.905439799
20
-180.188639127
30
0
10
151.434370804
20
-179.512659149
30
0
10
151.943616612
20
-178.804189065
30
0
10
152.45286242
20
-178.095718981
30
0
10
152.942423031
20
-177.354758791
30
0
10
153.410921284
20
-176.580201282
30
0
10
153.879419538
20
-175.805643774
30
0
10
154.326855434
20
-174.997488946
30
0
10
154.751851813
20
-174.154629586
30
0
10
155.111979128
20
-173.57401616
30
0
10
155.472378597
20
-172.981283169
30
0
10
155.833250865
20
-172.377184294
30
0
10
156.194123133
20
-171.773085418
30
0
10
156.555468201
20
-171.157620658
30
0
10
156.917486714
20
-170.531543694
30
0
10
157.279505227
20
-169.90546673
30
0
10
157.642197184
20
-169.268777562
30
0
10
158.005763232
20
-168.622229871
30
0
10
158.369329279
20
-167.97568218
30
0
10
158.733769417
20
-167.319275965
30
0
10
159.09928429
20
-166.653764908
30
0
10
159.464799163
20
-165.98825385
30
0
10
159.831388772
20
-165.313637951
30
0
10
160.199253762
20
-164.630670889
30
0
10
160.567118751
20
-163.947703827
30
0
10
160.936259122
20
-163.256385603
30
0
10
161.306875518
20
-162.557469897
30
0
10
161.677491914
20
-161.858554192
30
0
10
162.049584337
20
-161.152041005
30
0
10
162.423353431
20
-160.438684017
30
0
10
162.797122525
20
-159.72532703
30
0
10
163.172568291
20
-159.005126241
30
0
10
163.549891373
20
-158.278835333
30
0
10
163.927214456
20
-157.552544424
30
0
10
164.306414855
20
-156.820163396
30
0
10
164.687693216
20
-156.082445927
30
0
10
165.068971577
20
-155.344728459
30
0
10
165.452327901
20
-154.601674552
30
0
10
165.837962832
20
-153.854037885
30
0
10
166.223597763
20
-153.106401218
30
0
10
166.611511301
20
-152.354181793
30
0
10
167.001904092
20
-151.598133289
30
0
10
167.392296884
20
-150.842084785
30
0
10
167.785168928
20
-150.082207203
30
0
10
168.18072087
20
-149.319254224
30
0
10
168.576272812
20
-148.556301244
30
0
10
168.974504652
20
-147.790272867
30
0
10
169.375617036
20
-147.021922773
30
0
10
169.77672942
20
-146.253572678
30
0
10
170.180722347
20
-145.482900867
30
0
10
170.587796463
20
-144.71066102
30
0
10
170.994870579
20
-143.938421172
30
0
10
171.405025884
20
-143.164613288
30
0
10
171.818463023
20
-142.389991048
30
0
10
172.231900162
20
-141.615368809
30
0
10
172.648619135
20
-140.839932213
30
0
10
173.068820588
20
-140.064434943
30
0
10
173.48902204
20
-139.288937672
30
0
10
173.912705972
20
-138.513379727
30
0
10
174.340073029
20
-137.738514787
30
0
10
174.767440086
20
-136.963649847
30
0
10
175.198490268
20
-136.189477912
30
0
10
175.633424219
20
-135.416752664
30
0
10
176.068358171
20
-134.644027415
30
0
10
176.507175893
20
-133.872748853
30
0
10
176.95007803
20
-133.103670658
30
0
10
177.392980168
20
-132.334592462
30
0
10
177.839966721
20
-131.567714633
30
0
10
178.291238334
20
-130.803790852
30
0
10
178.742509948
20
-130.039867071
30
0
10
179.198066622
20
-129.278897337
30
0
10
179.658109003
20
-128.521635332
30
0
10
180.118151384
20
-127.764373326
30
0
10
180.58267947
20
-127.010819048
30
0
10
181.051893908
20
-126.261726179
30
0
10
181.521108347
20
-125.51263331
30
0
10
181.995009136
20
-124.76800185
30
0
10
182.473796923
20
-124.028585479
30
0
10
182.952584709
20
-123.289169108
30
0
10
183.436259492
20
-122.554967826
30
0
10
183.925021918
20
-121.826735314
30
0
10
184.413784343
20
-121.098502803
30
0
10
184.90763441
20
-120.376239061
30
0
10
185.406772765
20
-119.66069777
30
0
10
185.90591112
20
-118.945156479
30
0
10
186.410337763
20
-118.236337638
30
0
10
186.920253338
20
-117.534994928
30
0
10
187.430168913
20
-116.833652219
30
0
10
187.945573421
20
-116.139785641
30
0
10
188.466667507
20
-115.454148874
30
0
10
188.987761593
20
-114.768512108
30
0
10
189.514545258
20
-114.091105154
30
0
10
190.047219145
20
-113.422681692
30
0
10
190.579893033
20
-112.75425823
30
0
10
191.118457144
20
-112.09481826
30
0
10
191.663112124
20
-111.445115463
30
0
10
192.207767104
20
-110.795412667
30
0
10
192.758512953
20
-110.155447044
30
0
10
193.315550316
20
-109.525972274
30
0
10
193.872587679
20
-108.896497504
30
0
10
194.435916556
20
-108.277513588
30
0
10
195.005737592
20
-107.669774207
30
0
10
195.575558628
20
-107.062034825
30
0
10
196.151871824
20
-106.465539978
30
0
10
196.734877825
20
-105.881043346
30
0
10
197.323272584
20
-105.269116267
30
0
10
197.899442902
20
-104.659852429
30
0
10
198.463503539
20
-104.053115173
30
0
10
199.027564175
20
-103.446377916
30
0
10
199.579515131
20
-102.84216724
30
0
10
200.119471167
20
-102.240346483
30
0
10
200.659427203
20
-101.638525726
30
0
10
201.18738832
20
-101.039094888
30
0
10
201.703469277
20
-100.441917308
30
0
10
202.219550234
20
-99.844739728
30
0
10
202.723751033
20
-99.2498154059
30
0
10
203.216186433
20
-98.6570076803
30
0
10
203.708621834
20
-98.0641999548
30
0
10
204.189291837
20
-97.4735088257
30
0
10
204.658311203
20
-96.8847976317
30
0
10
205.127330569
20
-96.2960864378
30
0
10
205.584699298
20
-95.7093551789
30
0
10
206.030532151
20
-95.1244671939
30
0
10
206.476365004
20
-94.5395792088
30
0
10
206.910661982
20
-93.9565344975
30
0
10
207.333537844
20
-93.3751963986
30
0
10
207.756413707
20
-92.7938582997
30
0
10
208.167868454
20
-92.2142268132
30
0
10
208.568016848
20
-91.6361652778
30
0
10
208.968165242
20
-91.0581037423
30
0
10
209.357007282
20
-90.4816121579
30
0
10
209.734657729
20
-89.9065538632
30
0
10
210.112308176
20
-89.3314955685
30
0
10
210.47876703
20
-88.7578705634
30
0
10
210.834149052
20
-88.1855421867
30
0
10
211.189531075
20
-87.61321381
30
0
10
211.533836265
20
-87.0421820616
30
0
10
211.867179385
20
-86.4723102801
30
0
10
212.200522504
20
-85.9024384987
30
0
10
212.522903553
20
-85.3337266842
30
0
10
212.834437292
20
-84.7660381753
30
0
10
213.14597103
20
-84.1983496663
30
0
10
213.446657459
20
-83.631684463
30
0
10
213.736611339
20
-83.065905904
30
0
10
214.026565219
20
-82.5001273449
30
0
10
214.30578655
20
-81.93523543
30
0
10
214.574390093
20
-81.371093498
30
0
10
214.842993637
20
-80.8069515661
30
0
10
215.100979392
20
-80.2435596169
30
0
10
215.34846212
20
-79.6807809893
30
0
10
215.595944849
20
-79.1180023617
30
0
10
215.83292455
20
-78.5558370556
30
0
10
216.059515986
20
-77.9941484097
30
0
10
216.286107422
20
-77.4324597637
30
0
10
216.502310591
20
-76.8712477779
30
0
10
216.708240256
20
-76.3103757909
30
0
10
216.914169921
20
-75.7495038038
30
0
10
217.109826081
20
-75.1889718156
30
0
10
217.295323497
20
-74.6286431648
30
0
10
217.480820913
20
-74.0683145139
30
0
10
217.656159585
20
-73.5081892005
30
0
10
217.821454274
20
-72.9481305632
30
0
10
217.986748963
20
-72.3880719258
30
0
10
218.14199967
20
-71.8280799645
30
0
10
218.287321154
20
-71.2680180179
30
0
10
218.432642638
20
-70.7079560713
30
0
10
218.568034901
20
-70.1478241394
30
0
10
218.693612702
20
-69.5874855609
30
0
10
218.819190504
20
-69.0271469823
30
0
10
218.934953844
20
-68.4666017571
30
0
10
219.041017485
20
-67.9057132238
30
0
10
219.147081126
20
-67.3448246905
30
0
10
219.243445066
20
-66.7835928492
30
0
10
219.330224068
20
-66.2218810385
30
0
10
219.41700307
20
-65.6601692279
30
0
10
219.494197133
20
-65.0979774478
30
0
10
219.561921018
20
-64.535169037
30
0
10
219.629644903
20
-63.9723606261
30
0
10
219.68789861
20
-63.4089355845
30
0
10
219.7367969
20
-62.8447572508
30
0
10
219.78569519
20
-62.2805789171
30
0
10
219.825238063
20
-61.7156472913
30
0
10
219.85554028
20
-61.149825712
30
0
10
219.885842497
20
-60.5840041327
30
0
10
219.906904059
20
-60.0172926
30
0
10
219.918839725
20
-59.4495544523
30
0
10
219.930775391
20
-58.8818163047
30
0
10
219.933585163
20
-58.3130515423
30
0
10
219.9273838
20
-57.7431235036
30
0
10
219.921182437
20
-57.173195465
30
0
10
219.905969941
20
-56.6021041501
30
0
10
219.881861071
20
-56.0297128977
30
0
10
219.857752202
20
-55.4573216453
30
0
10
219.824746959
20
-54.8836304553
30
0
10
219.782960105
20
-54.3085026664
30
0
10
219.741173251
20
-53.7333748774
30
0
10
219.690604784
20
-53.1568104896
30
0
10
219.631369467
20
-52.5786728415
30
0
10
219.572134149
20
-52.0005351933
30
0
10
219.504231981
20
-51.4208242849
30
0
10
219.427777723
20
-50.8394034549
30
0
10
219.324872723
20
-49.5181252819
30
0
10
219.157706445
20
-48.2294521311
30
0
10
218.930396851
20
-46.972998327
30
0
10
218.703087256
20
-45.7165445229
30
0
10
218.415634343
20
-44.4923100654
30
0
10
218.072156072
20
-43.2999092793
30
0
10
217.7286778
20
-42.1075084932
30
0
10
217.32917417
20
-40.9469413784
30
0
10
216.877763139
20
-39.8178222596
30
0
10
216.426352109
20
-38.6887031407
30
0
10
215.923033678
20
-37.5910320178
30
0
10
215.371925806
20
-36.5244232154
30
0
10
214.820817934
20
-35.4578144131
30
0
10
214.221920621
20
-34.4222679313
30
0
10
213.579351826
20
-33.4173980946
30
0
10
212.93678303
20
-32.412528258
30
0
10
212.250542752
20
-31.4383350665
30
0
10
211.524748951
20
-30.4944328449
30
0
10
210.79895515
20
-29.5505306232
30
0
10
210.033607825
20
-28.6369193714
30
0
10
209.232824935
20
-27.7532134139
30
0
10
208.432042045
20
-26.8695074564
30
0
10
207.595823591
20
-26.0157067934
30
0
10
206.72828753
20
-25.1914257494
30
0
10
205.86075147
20
-24.3671447054
30
0
10
204.961897804
20
-23.5723832804
30
0
10
204.035844491
20
-22.8067557991
30
0
10
203.109791177
20
-22.0411283178
30
0
10
202.156538217
20
-21.3046347801
30
0
10
201.180203569
20
-20.5968895107
30
0
10
200.20386892
20
-19.8891442413
30
0
10
199.204452584
20
-19.2101472401
30
0
10
198.186072518
20
-18.5595128319
30
0
10
197.167692452
20
-17.9088784236
30
0
10
196.130348656
20
-17.2866066083
30
0
10
195.078159091
20
-16.6923117104
30
0
10
194.025969525
20
-16.0980168126
30
0
10
192.958934188
20
-15.5316988322
30
0
10
191.88117104
20
-14.992972094
30
0
10
190.803407893
20
-14.4542453558
30
0
10
189.714916933
20
-13.9431098597
30
0
10
188.61981612
20
-13.4591799304
30
0
10
187.524715308
20
-12.975250001
30
0
10
186.423004643
20
-12.5185256384
30
0
10
185.318802084
20
-12.0886211672
30
0
10
184.214599524
20
-11.6587166959
30
0
10
183.107905071
20
-11.2556321161
30
0
10
182.002836683
20
-10.8789817522
30
0
10
180.897768295
20
-10.5023313883
30
0
10
179.794325971
20
-10.1521152404
30
0
10
178.696627671
20
-9.82794763311
30
0
10
177.598929372
20
-9.50378002581
30
0
10
176.506975096
20
-9.20566095911
30
0
10
175.424882802
20
-8.93320475763
30
0
10
174.342790509
20
-8.66074855616
30
0
10
173.270560198
20
-8.4139552199
30
0
10
172.212309828
20
-8.19243907349
30
0
10
171.154059459
20
-7.97092292708
30
0
10
170.109789031
20
-7.7746839705
30
0
10
169.083616503
20
-7.60333652839
30
0
10
168.057443975
20
-7.43198908628
30
0
10
167.049369347
20
-7.28553315862
30
0
10
166.063510579
20
-7.16358307005
30
0
10
165.07765181
20
-7.04163298147
30
0
10
164.114008901
20
-6.94418873197
30
0
10
163.17669981
20
-6.87086464617
30
0
10
162.239390718
20
-6.79754056037
30
0
10
161.328415445
20
-6.74833663827
30
0
10
160.447891948
20
-6.72286720449
30
0
10
159.567368451
20
-6.6973977707
30
0
10
158.717296731
20
-6.69566282523
30
0
10
157.901794747
20
-6.71727669269
30
0
10
157.086292762
20
-6.73889056016
30
0
10
156.305360513
20
-6.78385324056
30
0
10
155.563115959
20
-6.85177905852
30
0
10
154.820871405
20
-6.91970487647
30
0
10
154.117314545
20
-7.01059383198
30
0
10
153.456563338
20
-7.12406024966
30
0
10
152.795812132
20
-7.23752666734
30
0
10
152.177866579
20
-7.3735705472
30
0
10
151.606844637
20
-7.53180621385
30
0
10
151.035822696
20
-7.69004188049
30
0
10
150.511724367
20
-7.87046933393
30
0
10
150.038667609
20
-8.07270289879
30
0
10
149.565610851
20
-8.27493646364
30
0
10
149.143595664
20
-8.4989761399
30
0
10
148.776740007
20
-8.74443625219
30
0
10
148.40988435
20
-8.98989636448
30
0
10
148.098188223
20
-9.25677691281
30
0
10
147.845769584
20
-9.54469222178
30
0
10
147.593350946
20
-9.83260753075
30
0
10
147.400209796
20
-10.1415576004
30
0
10
147.270464093
20
-10.4711567553
30
0
10
147.140718391
20
-10.8007559101
30
0
10
147.074368136
20
-11.1510041503
30
0
10
147.075531287
20
-11.5215158003
30
0
10
147.075531287
20
-11.5215158003
30
0
10
147.075263795
20
-12.2090157481
30
0
10
147.075263795
20
-12.2090157481
30
0
10
147.075263795
20
-12.2090157481
30
0
10
147.074996303
20
-12.8965156959
30
0
10
147.074996303
20
-12.8965156959
30
0
10
147.074996303
20
-12.8965156959
30
0
10
147.074728811
20
-13.5840156437
30
0
10
147.074728811
20
-13.5840156437
30
0
10
147.074728811
20
-13.5840156437
30
0
10
147.074461319
20
-14.2715155915
30
0
10
147.074461319
20
-14.2715155915
30
0
10
147.074461319
20
-14.2715155915
30
0
10
147.074193827
20
-14.9590155393
30
0
10
147.074193827
20
-14.9590155393
30
0
10
147.074193827
20
-14.9590155393
30
0
10
147.073926335
20
-15.6465154871
30
0
10
147.073926335
20
-15.6465154871
30
0
10
147.073926335
20
-15.6465154871
30
0
10
147.073658843
20
-16.3340154349
30
0
10
147.073658843
20
-16.3340154349
30
0
10
147.073658843
20
-16.3340154349
30
0
10
147.07339135
20
-17.0215153827
30
0
10
147.07339135
20
-17.0215153827
30
0
10
147.07339135
20
-17.0215153827
30
0
10
147.073123858
20
-17.7090153305
30
0
10
147.073123858
20
-17.7090153305
30
0
10
147.073123858
20
-17.7090153305
30
0
10
147.072856366
20
-18.3965152782
30
0
10
147.072856366
20
-18.3965152782
30
0
10
147.072856366
20
-18.3965152782
30
0
10
147.072588874
20
-19.084015226
30
0
10
147.072588874
20
-19.084015226
30
0
10
147.072588874
20
-19.084015226
30
0
10
147.072321382
20
-19.7715151738
30
0
10
147.072321382
20
-19.7715151738
30
0
10
147.072321382
20
-19.7715151738
30
0
10
147.07205389
20
-20.4590151216
30
0
10
147.07205389
20
-20.4590151216
30
0
10
147.07205389
20
-20.4590151216
30
0
10
147.071786398
20
-21.1465150694
30
0
10
147.071786398
20
-21.1465150694
30
0
10
147.071786398
20
-21.1465150694
30
0
10
147.071518906
20
-21.8340150172
30
0
10
147.071518906
20
-21.8340150172
30
0
10
147.071518906
20
-21.8340150172
30
0
10
147.071251414
20
-22.521514965
30
0
10
147.071251414
20
-22.521514965
30
0
10
147.071251414
20
-22.521514965
30
0
10
147.070983922
20
-23.2090149128
30
0
10
147.070983922
20
-23.2090149128
30
0
10
147.070983922
20
-23.2090149128
30
0
10
147.07071643
20
-23.8965148606
30
0
10
147.07071643
20
-23.8965148606
30
0
10
147.07071643
20
-23.8965148606
30
0
10
147.070448937
20
-24.5840148084
30
0
10
147.070448937
20
-24.5840148084
30
0
10
147.070448937
20
-24.5840148084
30
0
10
147.070181445
20
-25.2715147562
30
0
10
147.070181445
20
-25.2715147562
30
0
10
147.070181445
20
-25.2715147562
30
0
10
147.069913953
20
-25.9590147039
30
0
10
147.069913953
20
-25.9590147039
30
0
10
147.069913953
20
-25.9590147039
30
0
10
147.069646461
20
-26.6465146517
30
0
10
147.069646461
20
-26.6465146517
30
0
10
147.069646461
20
-26.6465146517
30
0
10
147.069378969
20
-27.3340145995
30
0
10
147.069378969
20
-27.3340145995
30
0
10
147.069378969
20
-27.3340145995
30
0
10
147.069111477
20
-28.0215145473
30
0
10
147.069111477
20
-28.0215145473
30
0
10
147.069111477
20
-28.0215145473
30
0
10
147.068843985
20
-28.7090144951
30
0
10
147.068843985
20
-28.7090144951
30
0
10
147.068843985
20
-28.7090144951
30
0
10
147.068576493
20
-29.3965144429
30
0
10
147.068576493
20
-29.3965144429
30
0
10
147.068576493
20
-29.3965144429
30
0
10
147.068309001
20
-30.0840143907
30
0
10
147.068309001
20
-30.0840143907
30
0
10
147.068309001
20
-30.0840143907
30
0
10
147.068041509
20
-30.7715143385
30
0
10
147.068041509
20
-30.7715143385
30
0
10
147.068041509
20
-30.7715143385
30
0
10
147.067774016
20
-31.4590142863
30
0
10
147.067774016
20
-31.4590142863
30
0
10
147.067774016
20
-31.4590142863
30
0
10
147.067506524
20
-32.1465142341
30
0
10
147.067506524
20
-32.1465142341
30
0
10
147.067506524
20
-32.1465142341
30
0
10
147.067239032
20
-32.8340141818
30
0
10
147.067239032
20
-32.8340141818
30
0
10
147.067239032
20
-32.8340141818
30
0
10
147.06697154
20
-33.5215141296
30
0
10
147.06697154
20
-33.5215141296
30
0
10
147.06697154
20
-33.5215141296
30
0
10
146.379471592
20
-33.5212466375
30
0
10
146.379471592
20
-33.5212466375
30
0
10
146.379471592
20
-33.5212466375
30
0
10
145.691971645
20
-33.5209791454
30
0
10
145.691971645
20
-33.5209791454
30
0
10
145.691971645
20
-33.5209791454
30
0
10
145.004471697
20
-33.5207116533
30
0
10
145.004471697
20
-33.5207116533
30
0
10
145.004471697
20
-33.5207116533
30
0
10
144.316971749
20
-33.5204441613
30
0
10
144.316971749
20
-33.5204441613
30
0
10
144.316971749
20
-33.5204441613
30
0
10
143.629471801
20
-33.5201766692
30
0
10
143.629471801
20
-33.5201766692
30
0
10
143.629471801
20
-33.5201766692
30
0
10
142.941971853
20
-33.5199091771
30
0
10
142.941971853
20
-33.5199091771
30
0
10
142.941971853
20
-33.5199091771
30
0
10
142.254471906
20
-33.519641685
30
0
10
142.254471906
20
-33.519641685
30
0
10
142.254471906
20
-33.519641685
30
0
10
141.566971958
20
-33.5193741929
30
0
10
141.566971958
20
-33.5193741929
30
0
10
141.566971958
20
-33.5193741929
30
0
10
140.87947201
20
-33.5191067008
30
0
10
140.87947201
20
-33.5191067008
30
0
10
140.87947201
20
-33.5191067008
30
0
10
140.191972062
20
-33.5188392087
30
0
10
140.191972062
20
-33.5188392087
30
0
10
140.191972062
20
-33.5188392087
30
0
10
139.504472114
20
-33.5185717166
30
0
10
139.504472114
20
-33.5185717166
30
0
10
139.504472114
20
-33.5185717166
30
0
10
138.816972167
20
-33.5183042245
30
0
10
138.816972167
20
-33.5183042245
30
0
10
138.816972167
20
-33.5183042245
30
0
10
138.129472219
20
-33.5180367324
30
0
10
138.129472219
20
-33.5180367324
30
0
10
138.129472219
20
-33.5180367324
30
0
10
137.441972271
20
-33.5177692403
30
0
10
137.441972271
20
-33.5177692403
30
0
10
137.441972271
20
-33.5177692403
30
0
10
136.754472323
20
-33.5175017482
30
0
10
136.754472323
20
-33.5175017482
30
0
10
136.754472323
20
-33.5175017482
30
0
10
136.066972376
20
-33.5172342561
30
0
10
136.066972376
20
-33.5172342561
30
0
10
136.066972376
20
-33.5172342561
30
0
10
135.379472428
20
-33.516966764
30
0
10
135.379472428
20
-33.516966764
30
0
10
135.379472428
20
-33.516966764
30
0
10
134.69197248
20
-33.5166992719
30
0
10
134.69197248
20
-33.5166992719
30
0
10
134.69197248
20
-33.5166992719
30
0
10
134.004472532
20
-33.5164317798
30
0
10
134.004472532
20
-33.5164317798
30
0
10
134.004472532
20
-33.5164317798
30
0
10
133.316972584
20
-33.5161642877
30
0
10
133.316972584
20
-33.5161642877
30
0
10
133.316972584
20
-33.5161642877
30
0
10
132.629472637
20
-33.5158967956
30
0
10
132.629472637
20
-33.5158967956
30
0
10
132.629472637
20
-33.5158967956
30
0
10
131.941972689
20
-33.5156293035
30
0
10
131.941972689
20
-33.5156293035
30
0
10
131.941972689
20
-33.5156293035
30
0
10
131.254472741
20
-33.5153618114
30
0
10
131.254472741
20
-33.5153618114
30
0
10
131.254472741
20
-33.5153618114
30
0
10
130.566972793
20
-33.5150943193
30
0
10
130.566972793
20
-33.5150943193
30
0
10
130.566972793
20
-33.5150943193
30
0
10
129.879472845
20
-33.5148268272
30
0
10
129.879472845
20
-33.5148268272
30
0
10
129.879472845
20
-33.5148268272
30
0
10
129.191972898
20
-33.5145593351
30
0
10
129.191972898
20
-33.5145593351
30
0
10
129.191972898
20
-33.5145593351
30
0
10
128.50447295
20
-33.514291843
30
0
10
128.50447295
20
-33.514291843
30
0
10
128.50447295
20
-33.514291843
30
0
10
127.816973002
20
-33.5140243509
30
0
10
127.816973002
20
-33.5140243509
30
0
10
127.816973002
20
-33.5140243509
30
0
10
127.129473054
20
-33.5137568588
30
0
10
127.129473054
20
-33.5137568588
30
0
10
127.129473054
20
-33.5137568588
30
0
10
126.441973106
20
-33.5134893667
30
0
10
126.441973106
20
-33.5134893667
30
0
10
126.441973106
20
-33.5134893667
30
0
10
125.754473159
20
-33.5132218747
30
0
10
125.754473159
20
-33.5132218747
30
0
10
125.754473159
20
-33.5132218747
30
0
10
125.066973211
20
-33.5129543826
30
0
10
125.066973211
20
-33.5129543826
30
0
10
125.066973211
20
-33.5129543826
30
0
10
125.067240703
20
-32.8254544348
30
0
10
125.067240703
20
-32.8254544348
30
0
10
125.067240703
20
-32.8254544348
30
0
10
125.067508195
20
-32.137954487
30
0
10
125.067508195
20
-32.137954487
30
0
10
125.067508195
20
-32.137954487
30
0
10
125.067775687
20
-31.4504545392
30
0
10
125.067775687
20
-31.4504545392
30
0
10
125.067775687
20
-31.4504545392
30
0
10
125.068043179
20
-30.7629545914
30
0
10
125.068043179
20
-30.7629545914
30
0
10
125.068043179
20
-30.7629545914
30
0
10
125.068310671
20
-30.0754546436
30
0
10
125.068310671
20
-30.0754546436
30
0
10
125.068310671
20
-30.0754546436
30
0
10
125.068578163
20
-29.3879546958
30
0
10
125.068578163
20
-29.3879546958
30
0
10
125.068578163
20
-29.3879546958
30
0
10
125.068845656
20
-28.700454748
30
0
10
125.068845656
20
-28.700454748
30
0
10
125.068845656
20
-28.700454748
30
0
10
125.069113148
20
-28.0129548002
30
0
10
125.069113148
20
-28.0129548002
30
0
10
125.069113148
20
-28.0129548002
30
0
10
125.06938064
20
-27.3254548524
30
0
10
125.06938064
20
-27.3254548524
30
0
10
125.06938064
20
-27.3254548524
30
0
10
125.069648132
20
-26.6379549047
30
0
10
125.069648132
20
-26.6379549047
30
0
10
125.069648132
20
-26.6379549047
30
0
10
125.069915624
20
-25.9504549569
30
0
10
125.069915624
20
-25.9504549569
30
0
10
125.069915624
20
-25.9504549569
30
0
10
125.070183116
20
-25.2629550091
30
0
10
125.070183116
20
-25.2629550091
30
0
10
125.070183116
20
-25.2629550091
30
0
10
125.070450608
20
-24.5754550613
30
0
10
125.070450608
20
-24.5754550613
30
0
10
125.070450608
20
-24.5754550613
30
0
10
125.0707181
20
-23.8879551135
30
0
10
125.0707181
20
-23.8879551135
30
0
10
125.0707181
20
-23.8879551135
30
0
10
125.070985592
20
-23.2004551657
30
0
10
125.070985592
20
-23.2004551657
30
0
10
125.070985592
20
-23.2004551657
30
0
10
125.071253084
20
-22.5129552179
30
0
10
125.071253084
20
-22.5129552179
30
0
10
125.071253084
20
-22.5129552179
30
0
10
125.071520577
20
-21.8254552701
30
0
10
125.071520577
20
-21.8254552701
30
0
10
125.071520577
20
-21.8254552701
30
0
10
125.071788069
20
-21.1379553223
30
0
10
125.071788069
20
-21.1379553223
30
0
10
125.071788069
20
-21.1379553223
30
0
10
125.072055561
20
-20.4504553745
30
0
10
125.072055561
20
-20.4504553745
30
0
10
125.072055561
20
-20.4504553745
30
0
10
125.072323053
20
-19.7629554268
30
0
10
125.072323053
20
-19.7629554268
30
0
10
125.072323053
20
-19.7629554268
30
0
10
125.072590545
20
-19.075455479
30
0
10
125.072590545
20
-19.075455479
30
0
10
125.072590545
20
-19.075455479
30
0
10
125.072858037
20
-18.3879555312
30
0
10
125.072858037
20
-18.3879555312
30
0
10
125.072858037
20
-18.3879555312
30
0
10
125.073125529
20
-17.7004555834
30
0
10
125.073125529
20
-17.7004555834
30
0
10
125.073125529
20
-17.7004555834
30
0
10
125.073393021
20
-17.0129556356
30
0
10
125.073393021
20
-17.0129556356
30
0
10
125.073393021
20
-17.0129556356
30
0
10
125.073660513
20
-16.3254556878
30
0
10
125.073660513
20
-16.3254556878
30
0
10
125.073660513
20
-16.3254556878
30
0
10
125.073928005
20
-15.63795574
30
0
10
125.073928005
20
-15.63795574
30
0
10
125.073928005
20
-15.63795574
30
0
10
125.074195497
20
-14.9504557922
30
0
10
125.074195497
20
-14.9504557922
30
0
10
125.074195497
20
-14.9504557922
30
0
10
125.07446299
20
-14.2629558444
30
0
10
125.07446299
20
-14.2629558444
30
0
10
125.07446299
20
-14.2629558444
30
0
10
125.074730482
20
-13.5754558966
30
0
10
125.074730482
20
-13.5754558966
30
0
10
125.074730482
20
-13.5754558966
30
0
10
125.074997974
20
-12.8879559488
30
0
10
125.074997974
20
-12.8879559488
30
0
10
125.074997974
20
-12.8879559488
30
0
10
125.075265466
20
-12.2004560011
30
0
10
125.075265466
20
-12.2004560011
30
0
10
125.075265466
20
-12.2004560011
30
0
10
125.075532958
20
-11.5129560533
30
0
10
125.075532958
20
-11.5129560533
30
0
0
MTEXT
5
AD
100
AcDbEntity
8
Outline T-Bone
6
ByLayer
62
256
370
-1
100
AcDbMText
10
133.981640246
20
-214.940759033
30
0
40
5
41
228.750004083
71
5
72
1
1
This work is licensed under a\PCreative Commons Attribution-ShareAlike 4.0 International License\P(CC BY-SA 4.0 DE)
7
standard
210
0
220
0
230
1
50
0
73
2
44
1
0
LINE
5
AE
100
AcDbEntity
8
Outlinebox
6
ByLayer
62
256
370
-1
100
AcDbLine
10
61.4069730734
20
-192.512954326
11
219.936973073
21
-192.512954326
0
LINE
5
AF
100
AcDbEntity
8
Outlinebox
6
ByLayer
62
256
370
-1
100
AcDbLine
10
219.936973073
20
-192.512954326
11
219.936973073
21
-6.69725432644
0
LINE
5
B0
100
AcDbEntity
8
Outlinebox
6
ByLayer
62
256
370
-1
100
AcDbLine
10
219.936973073
20
-6.69725432644
11
61.4069730734
21
-6.69725432644
0
LINE
5
B1
100
AcDbEntity
8
Outlinebox
6
ByLayer
62
256
370
-1
100
AcDbLine
10
61.4069730734
20
-6.69725432644
11
61.4069730734
21
-192.512954326
0
DIMENSION
5
B2
100
AcDbEntity
8
Measurements
6
ByLayer
62
256
370
-1
100
AcDbDimension
2
*D1
10
236.790950776
20
-6.69725432644
30
0
11
229.290950776
21
-99.6051043264
31
0
70
32
71
5
3
Standard
53
0
210
0
220
0
230
1
100
AcDbAlignedDimension
13
123.052854337
23
-192.512954326
33
0
14
158.350884266
24
-6.69725432644
34
0
50
90
100
AcDbRotatedDimension
0
DIMENSION
5
B3
100
AcDbEntity
8
Measurements2
6
ByLayer
62
256
370
-1
100
AcDbDimension
2
*D2
10
159.977
20
-52.6780321288
30
0
11
135.847
21
-45.1780321288
31
0
70
32
71
5
3
Standard
53
0
210
0
220
0
230
1
100
AcDbAlignedDimension
13
111.717
23
-27.483
33
0
14
159.977
24
-27.483
34
0
100
AcDbRotatedDimension
0
DIMENSION
5
B4
100
AcDbEntity
8
Measurements2
6
ByLayer
62
256
370
-1
100
AcDbDimension
2
*D3
10
202.477
20
-52.6800781182
30
0
11
181.227
21
-45.1800781182
31
0
70
32
71
5
3
Standard
53
0
210
0
220
0
230
1
100
AcDbAlignedDimension
13
159.977
23
-27.483
33
0
14
202.477
24
-27.483
34
0
100
AcDbRotatedDimension
0
DIMENSION
5
B5
100
AcDbEntity
8
Measurements2
6
ByLayer
62
256
370
-1
100
AcDbDimension
2
*D4
10
99.3945408762
20
-93.5229544509
30
0
11
91.8945408762
21
-60.5029772255
31
0
70
32
71
5
3
Standard
53
0
210
0
220
0
230
1
100
AcDbAlignedDimension
13
111.717
23
-27.483
33
0
14
116.636973155
24
-93.5229544509
34
0
50
90
100
AcDbRotatedDimension
0
DIMENSION
5
B6
100
AcDbEntity
8
Measurements2
6
ByLayer
62
256
370
-1
100
AcDbDimension
2
*D5
10
99.3965967258
20
-93.5229544509
30
0
11
91.8965967258
21
-133.522954451
31
0
70
32
71
5
3
Standard
53
0
210
0
220
0
230
1
100
AcDbAlignedDimension
13
116.636973155
23
-173.522954451
33
0
14
116.636973155
24
-93.5229544509
34
0
50
90
100
AcDbRotatedDimension
0
DIMENSION
5
B7
100
AcDbEntity
8
Measurements2
6
ByLayer
62
256
370
-1
100
AcDbDimension
2
*D6
10
158.546973155
20
-112.833654605
30
0
11
137.591973155
21
-105.333654605
31
0
70
32
71
5
3
Standard
53
0
210
0
220
0
230
1
100
AcDbAlignedDimension
13
116.636973155
23
-93.5229544509
33
0
14
158.546973155
24
-93.5229544509
34
0
100
AcDbRotatedDimension
0
DIMENSION
5
B8
100
AcDbEntity
8
Measurements2
6
ByLayer
62
256
370
-1
100
AcDbDimension
2
*D7
10
116.636973155
20
-75.1780835519
30
0
11
114.176986578
21
-67.6780835519
31
0
70
32
71
5
3
Standard
53
0
210
0
220
0
230
1
100
AcDbAlignedDimension
13
111.717
23
-27.483
33
0
14
116.636973155
24
-93.5229544509
34
0
100
AcDbRotatedDimension
0
DIMENSION
5
B9
100
AcDbEntity
8
Measurements2
6
ByLayer
62
256
370
-1
100
AcDbDimension
2
*D8
10
50.9364780703
20
-27.483
30
0
11
43.4364780703
21
-30.4979772155
31
0
70
32
71
5
72
0
3
Standard
53
0
210
0
220
0
230
1
100
AcDbAlignedDimension
13
125.066973311
23
-33.5129544309
33
0
14
111.717
24
-27.483
34
0
50
90
100
AcDbRotatedDimension
0
DIMENSION
5
BA
100
AcDbEntity
8
Measurements2
6
ByLayer
62
256
370
-1
100
AcDbDimension
2
*D9
10
125.066974726
20
3.30274604997
30
0
11
118.391987363
21
10.80274605
31
0
70
32
71
5
3
Standard
53
0
210
0
220
0
230
1
100
AcDbAlignedDimension
13
111.717
23
-27.483
33
0
14
125.066974726
24
-33.51295395
34
0
100
AcDbRotatedDimension
0
DIMENSION
5
BB
100
AcDbEntity
8
Measurements
6
ByLayer
62
256
370
-1
100
AcDbDimension
2
*D10
10
219.936973073
20
18.30274605
30
0
11
140.671973073
21
25.80274605
31
0
70
32
71
5
3
Standard
53
0
210
0
220
0
230
1
100
AcDbAlignedDimension
13
61.4069730734
23
-48.3465088382
33
0
14
219.936973073
24
-58.8132787929
34
0
100
AcDbRotatedDimension
0
CIRCLE
5
BC
100
AcDbEntity
8
Mounting Drillings
6
ByLayer
62
256
370
-1
100
AcDbCircle
10
111.717
20
-27.483
40
1.6
0
CIRCLE
5
BD
100
AcDbEntity
8
Mounting Drillings
6
ByLayer
62
256
370
-1
100
AcDbCircle
10
159.977
20
-27.483
40
1.6
0
CIRCLE
5
BE
100
AcDbEntity
8
Mounting Drillings
6
ByLayer
62
256
370
-1
100
AcDbCircle
10
202.477
20
-27.483
40
1.6
0
CIRCLE
5
BF
100
AcDbEntity
8
Outline T-Bone
6
ByLayer
62
256
370
-1
100
AcDbCircle
10
116.637
20
-93.523
40
1.6
0
CIRCLE
5
C0
100
AcDbEntity
8
Outline T-Bone
6
ByLayer
62
256
370
-1
100
AcDbCircle
10
158.547
20
-93.523
40
1.6
0
CIRCLE
5
C1
100
AcDbEntity
8
Outline T-Bone
6
ByLayer
62
256
370
-1
100
AcDbCircle
10
116.637
20
-173.523
40
1.6
0
DIMENSION
5
C2
100
AcDbEntity
8
Measurements
6
ByLayer
62
256
370
-1
100
AcDbDimension
2
*D11
10
157.315677144
20
-94.5446868525
30
0
11
153.757842879
21
-87.751174113
31
0
70
35
1
%%C<>
71
5
3
Standard
53
0
210
0
220
0
230
1
100
AcDbDiametricDimension
15
159.778322856
25
-92.5013131475
35
0
40
0
0
ENDSEC
0
SECTION
2
OBJECTS
0
DICTIONARY
5
C
330
0
100
AcDbDictionary
281
1
3
ACAD_GROUP
350
D
0
DICTIONARY
5
D
330
C
100
AcDbDictionary
281
1
0
ENDSEC
0
EOF
