999
dxfrw 0.5.11
0
SECTION
2
HEADER
9
$ACADVER
1
AC1021
9
$HANDSEED
5
20000
9
$DWGCODEPAGE
3
ANSI_1252
9
$INSBASE
10
0
20
0
30
0
9
$EXTMIN
10
0
20
0
30
0
9
$EXTMAX
10
396.25
20
442.280959185
30
0
9
$LIMMIN
10
0
20
0
9
$LIMMAX
10
12
20
9
9
$ORTHOMODE
70
0
9
$LTSCALE
40
1
9
$TEXTSTYLE
7
Standard
9
$CLAYER
8
Measurements
9
$DIMASZ
40
1.8
9
$DIMLFAC
40
1
9
$DIMSCALE
40
1
9
$DIMEXO
40
0.625
9
$DIMEXE
40
1.25
9
$DIMTXT
40
5
9
$DIMTSZ
40
0
9
$DIMAUNIT
70
0
9
$DIMADEC
70
0
9
$DIMLUNIT
70
2
9
$DIMSTYLE
2
Standard
9
$DIMGAP
40
5
9
$DIMTIH
70
0
9
$LUNITS
70
2
9
$LUPREC
70
4
9
$AUNITS
70
0
9
$AUPREC
70
0
9
$SPLINESEGS
70
8
9
$GRIDMODE
70
0
9
$SNAPSTYLE
70
0
9
$GRIDUNIT
10
0
20
0
9
$PINSBASE
10
12.5
20
45.2546025876
30
0
9
$PLIMMIN
10
0
20
0
9
$PLIMMAX
10
210
20
297
9
$INSUNITS
70
4
9
$PSVPSCALE
40
0.466876971609
0
ENDSEC
0
SECTION
2
CLASSES
0
ENDSEC
0
SECTION
2
TABLES
0
TABLE
2
VPORT
5
8
330
0
100
AcDbSymbolTable
70
1
0
VPORT
5
31
330
2
100
AcDbSymbolTableRecord
100
AcDbViewportTableRecord
2
*ACTIVE
70
0
10
0
20
0
11
1
21
1
12
389.106101154
22
263.72746856
13
0
23
0
14
10
24
10
15
10
25
10
16
0
26
0
36
1
17
0
27
0
37
0
40
578.100493143
41
2.17094017094
42
50
43
0
44
0
50
0
51
0
71
0
72
100
73
1
74
3
75
0
76
0
77
0
78
0
281
0
65
1
110
0
120
0
130
0
111
1
121
0
131
0
112
0
122
1
132
0
79
0
146
0
348
10020
60
7
61
5
292
1
282
1
141
0
142
0
63
250
421
3358443
0
ENDTAB
0
TABLE
2
LTYPE
5
5
330
0
100
AcDbSymbolTable
70
4
0
LTYPE
5
14
330
5
100
AcDbSymbolTableRecord
100
AcDbLinetypeTableRecord
2
ByBlock
70
0
3

72
65
73
0
40
0
0
LTYPE
5
15
330
5
100
AcDbSymbolTableRecord
100
AcDbLinetypeTableRecord
2
ByLayer
70
0
3

72
65
73
0
40
0
0
LTYPE
5
16
330
5
100
AcDbSymbolTableRecord
100
AcDbLinetypeTableRecord
2
Continuous
70
0
3
Solid line
72
65
73
0
40
0
0
LTYPE
5
32
330
5
100
AcDbSymbolTableRecord
100
AcDbLinetypeTableRecord
2
DOT
70
0
3
Dot . . . . . . . . . . . . . . . . . . . . . .
72
65
73
2
40
6.35
49
0
74
0
49
-6.35
74
0
0
LTYPE
5
33
330
5
100
AcDbSymbolTableRecord
100
AcDbLinetypeTableRecord
2
DOT2
70
0
3
Dot (.5x) .....................................
72
65
73
2
40
3.175
49
0
74
0
49
-3.175
74
0
0
LTYPE
5
34
330
5
100
AcDbSymbolTableRecord
100
AcDbLinetypeTableRecord
2
DOTX2
70
0
3
Dot (2x) .  .  .  .  .  .  .  .  .  .  .  .  .
72
65
73
2
40
12.7
49
0
74
0
49
-12.7
74
0
0
LTYPE
5
35
330
5
100
AcDbSymbolTableRecord
100
AcDbLinetypeTableRecord
2
DASHED
70
0
3
Dot . . . . . . . . . . . . . . . . . . . . . .
72
65
73
2
40
19.05
49
12.7
74
0
49
-6.35
74
0
0
LTYPE
5
36
330
5
100
AcDbSymbolTableRecord
100
AcDbLinetypeTableRecord
2
DASHED2
70
0
3
Dashed (.5x) _ _ _ _ _ _ _ _ _ _ _ _ _ _ _ _ _
72
65
73
2
40
9.525
49
6.35
74
0
49
-3.175
74
0
0
LTYPE
5
37
330
5
100
AcDbSymbolTableRecord
100
AcDbLinetypeTableRecord
2
DASHEDX2
70
0
3
Dashed (2x) ____  ____  ____  ____  ____  ___
72
65
73
2
40
38.1
49
25.4
74
0
49
-12.7
74
0
0
LTYPE
5
38
330
5
100
AcDbSymbolTableRecord
100
AcDbLinetypeTableRecord
2
DASHDOT
70
0
3
Dash dot __ . __ . __ . __ . __ . __ . __ . __
72
65
73
4
40
25.4
49
12.7
74
0
49
-6.35
74
0
49
0
74
0
49
-6.35
74
0
0
LTYPE
5
39
330
5
100
AcDbSymbolTableRecord
100
AcDbLinetypeTableRecord
2
DASHDOT2
70
0
3
Dash dot (.5x) _._._._._._._._._._._._._._._.
72
65
73
4
40
12.7
49
6.35
74
0
49
-3.175
74
0
49
0
74
0
49
-3.175
74
0
0
LTYPE
5
3A
330
5
100
AcDbSymbolTableRecord
100
AcDbLinetypeTableRecord
2
DASHDOTX2
70
0
3
Dash dot (2x) ____  .  ____  .  ____  .  ___
72
65
73
4
40
50.8
49
25.4
74
0
49
-12.7
74
0
49
0
74
0
49
-12.7
74
0
0
LTYPE
5
3B
330
5
100
AcDbSymbolTableRecord
100
AcDbLinetypeTableRecord
2
DIVIDE
70
0
3
Divide ____ . . ____ . . ____ . . ____ . . ____
72
65
73
6
40
31.75
49
12.7
74
0
49
-6.35
74
0
49
0
74
0
49
-6.35
74
0
49
0
74
0
49
-6.35
74
0
0
LTYPE
5
3C
330
5
100
AcDbSymbolTableRecord
100
AcDbLinetypeTableRecord
2
DIVIDE2
70
0
3
Divide (.5x) __..__..__..__..__..__..__..__.._
72
65
73
6
40
15.875
49
6.35
74
0
49
-3.175
74
0
49
0
74
0
49
-3.175
74
0
49
0
74
0
49
-3.175
74
0
0
LTYPE
5
3D
330
5
100
AcDbSymbolTableRecord
100
AcDbLinetypeTableRecord
2
DIVIDEX2
70
0
3
Divide (2x) ________  .  .  ________  .  .  _
72
65
73
6
40
63.5
49
25.4
74
0
49
-12.7
74
0
49
0
74
0
49
-12.7
74
0
49
0
74
0
49
-12.7
74
0
0
LTYPE
5
3E
330
5
100
AcDbSymbolTableRecord
100
AcDbLinetypeTableRecord
2
BORDER
70
0
3
Border __ __ . __ __ . __ __ . __ __ . __ __ .
72
65
73
6
40
44.45
49
12.7
74
0
49
-6.35
74
0
49
12.7
74
0
49
-6.35
74
0
49
0
74
0
49
-6.35
74
0
0
LTYPE
5
3F
330
5
100
AcDbSymbolTableRecord
100
AcDbLinetypeTableRecord
2
BORDER2
70
0
3
Border (.5x) __.__.__.__.__.__.__.__.__.__.__.
72
65
73
6
40
22.225
49
6.35
74
0
49
-3.175
74
0
49
6.35
74
0
49
-3.175
74
0
49
0
74
0
49
-3.175
74
0
0
LTYPE
5
40
330
5
100
AcDbSymbolTableRecord
100
AcDbLinetypeTableRecord
2
BORDERX2
70
0
3
Border (2x) ____  ____  .  ____  ____  .  ___
72
65
73
6
40
88.9
49
25.4
74
0
49
-12.7
74
0
49
25.4
74
0
49
-12.7
74
0
49
0
74
0
49
-12.7
74
0
0
LTYPE
5
41
330
5
100
AcDbSymbolTableRecord
100
AcDbLinetypeTableRecord
2
CENTER
70
0
3
Center ____ _ ____ _ ____ _ ____ _ ____ _ ____
72
65
73
4
40
50.8
49
31.75
74
0
49
-6.35
74
0
49
6.35
74
0
49
-6.35
74
0
0
LTYPE
5
42
330
5
100
AcDbSymbolTableRecord
100
AcDbLinetypeTableRecord
2
CENTER2
70
0
3
Center (.5x) ___ _ ___ _ ___ _ ___ _ ___ _ ___
72
65
73
4
40
28.575
49
19.05
74
0
49
-3.175
74
0
49
3.175
74
0
49
-3.175
74
0
0
LTYPE
5
43
330
5
100
AcDbSymbolTableRecord
100
AcDbLinetypeTableRecord
2
CENTERX2
70
0
3
Center (2x) ________  __  ________  __  _____
72
65
73
4
40
101.6
49
63.5
74
0
49
-12.7
74
0
49
12.7
74
0
49
-12.7
74
0
0
ENDTAB
0
TABLE
2
LAYER
5
2
330
0
100
AcDbSymbolTable
70
1
0
LAYER
5
10
330
2
100
AcDbSymbolTableRecord
100
AcDbLayerTableRecord
2
0
70
0
62
9
6
CONTINUOUS
370
25
390
F
0
LAYER
5
44
330
2
100
AcDbSymbolTableRecord
100
AcDbLayerTableRecord
2
Drillings M8
70
0
62
7
6
CONTINUOUS
370
25
390
F
0
LAYER
5
45
330
2
100
AcDbSymbolTableRecord
100
AcDbLayerTableRecord
2
Inside
70
0
62
255
6
CONTINUOUS
370
25
390
F
0
LAYER
5
46
330
2
100
AcDbSymbolTableRecord
100
AcDbLayerTableRecord
2
M3 Drillings
70
0
62
7
6
CONTINUOUS
370
25
390
F
0
LAYER
5
47
330
2
100
AcDbSymbolTableRecord
100
AcDbLayerTableRecord
2
Measurements
70
1
62
7
6
CONTINUOUS
370
0
390
F
0
LAYER
5
48
330
2
100
AcDbSymbolTableRecord
100
AcDbLayerTableRecord
2
Outside
70
0
62
255
6
CONTINUOUS
370
25
390
F
0
ENDTAB
0
TABLE
2
STYLE
5
3
330
0
100
AcDbSymbolTable
70
3
0
STYLE
5
49
330
2
100
AcDbSymbolTableRecord
100
AcDbTextStyleTableRecord
2
standard
70
0
40
0
41
1
50
0
71
0
42
1
3
standard
4

0
ENDTAB
0
TABLE
2
VIEW
5
6
330
0
100
AcDbSymbolTable
70
0
0
ENDTAB
0
TABLE
2
UCS
5
7
330
0
100
AcDbSymbolTable
70
0
0
ENDTAB
0
TABLE
2
APPID
5
9
330
0
100
AcDbSymbolTable
70
1
0
APPID
5
12
330
9
100
AcDbSymbolTableRecord
100
AcDbRegAppTableRecord
2
ACAD
70
0
0
ENDTAB
0
TABLE
2
DIMSTYLE
5
A
330
0
100
AcDbSymbolTable
70
1
100
AcDbDimStyleTable
71
1
0
DIMSTYLE
105
4A
330
A
100
AcDbSymbolTableRecord
100
AcDbDimStyleTableRecord
2
Standard
70
0
40
1
41
1.8
42
0.625
43
0.38
44
1.25
45
0
46
0
47
0
48
0
140
5
141
0.09
142
0
143
25.4
144
1
145
0
146
1
147
5
148
0
71
0
72
0
73
0
74
1
75
0
76
0
77
0
78
0
79
0
170
0
171
2
172
0
173
0
174
0
175
0
176
0
177
0
178
0
179
0
271
4
272
4
273
2
274
2
275
0
276
0
277
2
278
46
279
0
280
0
281
0
282
0
283
1
284
0
285
0
286
0
288
0
289
3
340
Standard
341

371
-2
372
-2
0
ENDTAB
0
TABLE
2
BLOCK_RECORD
5
1
330
0
100
AcDbSymbolTable
70
2
0
BLOCK_RECORD
5
1F
330
1
100
AcDbSymbolTableRecord
100
AcDbBlockTableRecord
2
*Model_Space
70
0
280
1
281
0
0
BLOCK_RECORD
5
1E
330
1
100
AcDbSymbolTableRecord
100
AcDbBlockTableRecord
2
*Paper_Space
70
0
280
1
281
0
0
BLOCK_RECORD
5
4B
330
1
100
AcDbSymbolTableRecord
100
AcDbBlockTableRecord
2
*D2
70
0
280
1
281
0
0
BLOCK_RECORD
5
4E
330
1
100
AcDbSymbolTableRecord
100
AcDbBlockTableRecord
2
*D1
70
0
280
1
281
0
0
BLOCK_RECORD
5
51
330
1
100
AcDbSymbolTableRecord
100
AcDbBlockTableRecord
2
*D4
70
0
280
1
281
0
0
BLOCK_RECORD
5
54
330
1
100
AcDbSymbolTableRecord
100
AcDbBlockTableRecord
2
*D3
70
0
280
1
281
0
0
BLOCK_RECORD
5
57
330
1
100
AcDbSymbolTableRecord
100
AcDbBlockTableRecord
2
GOPR3348
70
0
280
1
281
0
0
ENDTAB
0
ENDSEC
0
SECTION
2
BLOCKS
0
BLOCK
5
20
330
1F
100
AcDbEntity
8
0
100
AcDbBlockBegin
2
*Model_Space
70
0
10
0
20
0
30
0
3
*Model_Space
1

0
ENDBLK
5
21
330
1F
100
AcDbEntity
8
0
100
AcDbBlockEnd
0
BLOCK
5
1C
330
1B
100
AcDbEntity
8
0
100
AcDbBlockBegin
2
*Paper_Space
70
0
10
0
20
0
30
0
3
*Paper_Space
1

0
ENDBLK
5
1D
330
1F
100
AcDbEntity
8
0
100
AcDbBlockEnd
0
BLOCK
5
4C
330
4B
100
AcDbEntity
8
0
100
AcDbBlockBegin
2
*D2
70
1
10
0
20
0
3
*D2
1

0
LINE
5
5A
100
AcDbEntity
8
Measurements
6
CONTINUOUS
62
7
370
0
100
AcDbLine
10
395
20
370
11
395
21
0
0
SOLID
5
5B
100
AcDbEntity
8
Measurements
6
CONTINUOUS
62
7
370
0
100
AcDbTrace
10
395
20
370
30
0
11
395.299724954
21
368.2
31
0
12
394.700275046
22
368.2
32
0
13
394.700275046
23
368.2
33
0
0
SOLID
5
5C
100
AcDbEntity
8
Measurements
6
CONTINUOUS
62
7
370
0
100
AcDbTrace
10
395
20
0
30
0
11
394.700275046
21
1.8
31
0
12
395.299724954
22
1.8
32
0
13
395.299724954
23
1.8
33
0
0
MTEXT
5
5D
100
AcDbEntity
8
Measurements
6
CONTINUOUS
62
7
370
0
100
AcDbMText
10
387.5
20
185
30
0
40
5
41
27.2222222222
71
5
72
1
1
370.0000
7
standard
210
0
220
0
230
1
50
90
73
2
44
1
0
LINE
5
5E
100
AcDbEntity
8
Measurements
6
CONTINUOUS
62
7
370
0
100
AcDbLine
10
365.625
20
370
11
396.25
21
370
0
LINE
5
5F
100
AcDbEntity
8
Measurements
6
CONTINUOUS
62
7
370
0
100
AcDbLine
10
365.625
20
0
11
396.25
21
0
0
ENDBLK
5
4D
330
4B
100
AcDbEntity
8
0
100
AcDbBlockEnd
0
BLOCK
5
4F
330
4E
100
AcDbEntity
8
0
100
AcDbBlockBegin
2
*D1
70
1
10
0
20
0
3
*D1
1

0
LINE
5
60
100
AcDbEntity
8
Measurements
6
CONTINUOUS
62
7
370
0
100
AcDbLine
10
0
20
395
11
370
21
395
0
SOLID
5
61
100
AcDbEntity
8
Measurements
6
CONTINUOUS
62
7
370
0
100
AcDbTrace
10
0
20
395
30
0
11
1.8
21
395.299724954
31
0
12
1.8
22
394.700275046
32
0
13
1.8
23
394.700275046
33
0
0
SOLID
5
62
100
AcDbEntity
8
Measurements
6
CONTINUOUS
62
7
370
0
100
AcDbTrace
10
370
20
395
30
0
11
368.2
21
394.700275046
31
0
12
368.2
22
395.299724954
32
0
13
368.2
23
395.299724954
33
0
0
MTEXT
5
63
100
AcDbEntity
8
Measurements
6
CONTINUOUS
62
7
370
0
100
AcDbMText
10
185
20
402.5
30
0
40
5
41
27.2222222222
71
5
72
1
1
370.0000
7
standard
210
0
220
0
230
1
50
0
73
2
44
1
0
LINE
5
64
100
AcDbEntity
8
Measurements
6
CONTINUOUS
62
7
370
0
100
AcDbLine
10
3.82689485569e-017
20
365.625
11
7.65378971139e-017
21
396.25
0
LINE
5
65
100
AcDbEntity
8
Measurements
6
CONTINUOUS
62
7
370
0
100
AcDbLine
10
370
20
365.625
11
370
21
396.25
0
ENDBLK
5
50
330
4E
100
AcDbEntity
8
0
100
AcDbBlockEnd
0
BLOCK
5
52
330
51
100
AcDbEntity
8
0
100
AcDbBlockBegin
2
*D4
70
1
10
0
20
0
3
*D4
1

0
LINE
5
66
100
AcDbEntity
8
Measurements
6
CONTINUOUS
62
7
370
0
100
AcDbLine
10
17.3105195354
20
7.0391395118
11
22.6894804646
21
12.9608604882
0
SOLID
5
67
100
AcDbEntity
8
Measurements
6
CONTINUOUS
62
7
370
0
100
AcDbTrace
10
17.3105195354
20
7.0391395118
30
0
11
18.2989248014
21
8.57305283335
31
0
12
18.7426466876
22
8.17000062963
32
0
13
18.7426466876
23
8.17000062963
33
0
0
SOLID
5
68
100
AcDbEntity
8
Measurements
6
CONTINUOUS
62
7
370
0
100
AcDbTrace
10
22.6894804646
20
12.9608604882
30
0
11
21.7010751986
21
11.4269471666
31
0
12
21.2573533124
22
11.8299993704
32
0
13
21.2573533124
23
11.8299993704
33
0
0
MTEXT
5
69
100
AcDbEntity
8
Measurements
6
CONTINUOUS
62
7
370
0
100
AcDbMText
10
28.7175746051
20
30.7517856835
30
0
40
5
41
24.4444444444
71
5
72
1
1
%%C8.0000
7
standard
210
0
220
0
230
1
50
47.749743892
73
2
44
1
0
ENDBLK
5
53
330
51
100
AcDbEntity
8
0
100
AcDbBlockEnd
0
BLOCK
5
55
330
54
100
AcDbEntity
8
0
100
AcDbBlockBegin
2
*D3
70
1
10
0
20
0
3
*D3
1

0
LINE
5
6A
100
AcDbEntity
8
Measurements
6
CONTINUOUS
62
7
370
0
100
AcDbLine
10
34.6702329257
20
357.950872278
11
25.3297670743
21
362.049127722
0
SOLID
5
6B
100
AcDbEntity
8
Measurements
6
CONTINUOUS
62
7
370
0
100
AcDbTrace
10
31.3735979193
20
359.397315376
30
0
11
33.1423418365
21
358.948561542
31
0
12
32.9014890085
22
358.399626112
32
0
13
32.9014890085
23
358.399626112
33
0
0
SOLID
5
6C
100
AcDbEntity
8
Measurements
6
CONTINUOUS
62
7
370
0
100
AcDbTrace
10
28.6264020807
20
360.602684624
30
0
11
26.8576581635
21
361.051438458
31
0
12
27.0985109915
22
361.600373888
32
0
13
27.0985109915
23
361.600373888
33
0
0
MTEXT
5
6D
100
AcDbEntity
8
Measurements
6
CONTINUOUS
62
7
370
0
100
AcDbMText
10
50.1579601131
20
359.345592623
30
0
40
5
41
24.4444444444
71
5
72
1
1
%%C3.0000
7
standard
210
0
220
0
230
1
50
336.309887873
73
2
44
1
0
ENDBLK
5
56
330
54
100
AcDbEntity
8
0
100
AcDbBlockEnd
0
BLOCK
5
58
330
57
100
AcDbEntity
8
0
100
AcDbBlockBegin
2
GOPR3348
70
0
10
0
20
0
3
GOPR3348
1

0
ENDBLK
5
59
330
57
100
AcDbEntity
8
0
100
AcDbBlockEnd
0
ENDSEC
0
SECTION
2
ENTITIES
0
LINE
5
6E
100
AcDbEntity
8
Outside
6
ByLayer
62
256
370
-1
100
AcDbLine
10
5
20
0
11
0
21
4.80825158518
0
LINE
5
6F
100
AcDbEntity
8
Outside
6
ByLayer
62
256
370
-1
100
AcDbLine
10
0
20
4.80825158518
11
0
21
365
0
LINE
5
70
100
AcDbEntity
8
Outside
6
ByLayer
62
256
370
-1
100
AcDbLine
10
0
20
365
11
5
21
370
0
LINE
5
71
100
AcDbEntity
8
Outside
6
ByLayer
62
256
370
-1
100
AcDbLine
10
5
20
370
11
365
21
370
0
LINE
5
72
100
AcDbEntity
8
Outside
6
ByLayer
62
256
370
-1
100
AcDbLine
10
365
20
370
11
370
21
365
0
LINE
5
73
100
AcDbEntity
8
Outside
6
ByLayer
62
256
370
-1
100
AcDbLine
10
370
20
365
11
370
21
5
0
LINE
5
74
100
AcDbEntity
8
Outside
6
ByLayer
62
256
370
-1
100
AcDbLine
10
370
20
5
11
365
21
0
0
LINE
5
75
100
AcDbEntity
8
Outside
6
ByLayer
62
256
370
-1
100
AcDbLine
10
365
20
0
11
345
21
0
0
LINE
5
76
100
AcDbEntity
8
Outside
6
ByLayer
62
256
370
-1
100
AcDbLine
10
345
20
0
11
343
21
2
0
LINE
5
77
100
AcDbEntity
8
Outside
6
ByLayer
62
256
370
-1
100
AcDbLine
10
329
20
2
11
41
21
2
0
LINE
5
78
100
AcDbEntity
8
Outside
6
ByLayer
62
256
370
-1
100
AcDbLine
10
27
20
2
11
25
21
0
0
LINE
5
79
100
AcDbEntity
8
Outside
6
ByLayer
62
256
370
-1
100
AcDbLine
10
25
20
0
11
5
21
0
0
ARC
5
7A
100
AcDbEntity
8
Inside
6
ByLayer
62
256
370
-1
100
AcDbCircle
10
100
20
20
40
5
100
AcDbArc
50
180
51
0
0
LINE
5
7B
100
AcDbEntity
8
Inside
6
ByLayer
62
256
370
-1
100
AcDbLine
10
95
20
20
11
95
21
35
0
LINE
5
7C
100
AcDbEntity
8
Inside
6
ByLayer
62
256
370
-1
100
AcDbLine
10
95
20
35
11
80
21
50
0
LINE
5
7D
100
AcDbEntity
8
Inside
6
ByLayer
62
256
370
-1
100
AcDbLine
10
80
20
50
11
60
21
50
0
LINE
5
7E
100
AcDbEntity
8
Inside
6
ByLayer
62
256
370
-1
100
AcDbLine
10
60
20
50
11
55
21
55
0
LINE
5
7F
100
AcDbEntity
8
Inside
6
ByLayer
62
256
370
-1
100
AcDbLine
10
315
20
55
11
310
21
50
0
LINE
5
80
100
AcDbEntity
8
Inside
6
ByLayer
62
256
370
-1
100
AcDbLine
10
105
20
20
11
105
21
35
0
LINE
5
81
100
AcDbEntity
8
Inside
6
ByLayer
62
256
370
-1
100
AcDbLine
10
105
20
35
11
110
21
40
0
ARC
5
82
100
AcDbEntity
8
Inside
6
ByLayer
62
256
370
-1
100
AcDbCircle
10
270
20
20
40
5
100
AcDbArc
50
180
51
0
0
LINE
5
83
100
AcDbEntity
8
Inside
6
ByLayer
62
256
370
-1
100
AcDbLine
10
275
20
35
11
275
21
20
0
LINE
5
84
100
AcDbEntity
8
Inside
6
ByLayer
62
256
370
-1
100
AcDbLine
10
265
20
20
11
265
21
35
0
LINE
5
85
100
AcDbEntity
8
Inside
6
ByLayer
62
256
370
-1
100
AcDbLine
10
265
20
35
11
260
21
40
0
LINE
5
86
100
AcDbEntity
8
Inside
6
ByLayer
62
256
370
-1
100
AcDbLine
10
180
20
15
11
190
21
15
0
LINE
5
87
100
AcDbEntity
8
Inside
6
ByLayer
62
256
370
-1
100
AcDbLine
10
190
20
15
11
215
21
40
0
LINE
5
88
100
AcDbEntity
8
Inside
6
ByLayer
62
256
370
-1
100
AcDbLine
10
180
20
15
11
155
21
40
0
LINE
5
89
100
AcDbEntity
8
Inside
6
ByLayer
62
256
370
-1
100
AcDbLine
10
110
20
40
11
155
21
40
0
LINE
5
8A
100
AcDbEntity
8
Inside
6
ByLayer
62
256
370
-1
100
AcDbLine
10
215
20
40
11
260
21
40
0
LINE
5
8B
100
AcDbEntity
8
Outside
6
ByLayer
62
256
370
-1
100
AcDbLine
10
343
20
2
11
339
21
6
0
LINE
5
8C
100
AcDbEntity
8
Outside
6
ByLayer
62
256
370
-1
100
AcDbLine
10
339
20
6
11
333
21
6
0
LINE
5
8D
100
AcDbEntity
8
Outside
6
ByLayer
62
256
370
-1
100
AcDbLine
10
333
20
6
11
329
21
2
0
LINE
5
8E
100
AcDbEntity
8
Outside
6
ByLayer
62
256
370
-1
100
AcDbLine
10
27
20
2
11
31
21
6
0
LINE
5
8F
100
AcDbEntity
8
Outside
6
ByLayer
62
256
370
-1
100
AcDbLine
10
31
20
6
11
37
21
6
0
LINE
5
90
100
AcDbEntity
8
Outside
6
ByLayer
62
256
370
-1
100
AcDbLine
10
37
20
6
11
41
21
2
0
CIRCLE
5
91
100
AcDbEntity
8
Drillings M8
6
ByLayer
62
256
370
-1
100
AcDbCircle
10
20
20
10
40
4
0
CIRCLE
5
92
100
AcDbEntity
8
Drillings M8
6
ByLayer
62
256
370
-1
100
AcDbCircle
10
350
20
10
40
4
0
CIRCLE
5
93
100
AcDbEntity
8
M3 Drillings
6
ByLayer
62
256
370
-1
100
AcDbCircle
10
360
20
360
40
1.5
0
CIRCLE
5
94
100
AcDbEntity
8
M3 Drillings
6
ByLayer
62
256
370
-1
100
AcDbCircle
10
340
20
360
40
1.5
0
CIRCLE
5
95
100
AcDbEntity
8
M3 Drillings
6
ByLayer
62
256
370
-1
100
AcDbCircle
10
10
20
360
40
1.5
0
CIRCLE
5
96
100
AcDbEntity
8
M3 Drillings
6
ByLayer
62
256
370
-1
100
AcDbCircle
10
30
20
360
40
1.5
0
LINE
5
97
100
AcDbEntity
8
Inside
6
ByLayer
62
256
370
-1
100
AcDbLine
10
55
20
55
11
55
21
145
0
LINE
5
98
100
AcDbEntity
8
Inside
6
ByLayer
62
256
370
-1
100
AcDbLine
10
315
20
145
11
315
21
55
0
LINE
5
99
100
AcDbEntity
8
Inside
6
ByLayer
62
256
370
-1
100
AcDbLine
10
55
20
145
11
60
21
150
0
LINE
5
9A
100
AcDbEntity
8
Inside
6
ByLayer
62
256
370
-1
100
AcDbLine
10
60
20
150
11
310
21
150
0
LINE
5
9B
100
AcDbEntity
8
Inside
6
ByLayer
62
256
370
-1
100
AcDbLine
10
310
20
150
11
315
21
145
0
LINE
5
9C
100
AcDbEntity
8
Inside
6
ByLayer
62
256
370
-1
100
AcDbLine
10
290
20
50
11
275
21
35
0
LINE
5
9D
100
AcDbEntity
8
Inside
6
ByLayer
62
256
370
-1
100
AcDbLine
10
310
20
50
11
290
21
50
0
MTEXT
5
9E
100
AcDbEntity
8
Drillings M8
6
ByLayer
62
256
370
-1
100
AcDbMText
10
185.854361906
20
431.447625852
30
0
40
5
41
228.750004083
71
5
72
1
1
This work is licensed under \P Creative Commons Attribution-ShareAlike 4.0 International License\P(CC BY-SA 4.0 DE)
7
standard
210
0
220
0
230
1
50
0
73
2
44
1
0
DIMENSION
5
9F
100
AcDbEntity
8
Measurements
6
ByLayer
62
256
370
-1
100
AcDbDimension
2
*D1
10
370
20
395
30
0
11
185
21
402.5
31
0
70
32
71
5
72
0
3
Standard
53
0
210
0
220
0
230
1
100
AcDbAlignedDimension
13
0
23
365
33
0
14
370
24
365
34
0
100
AcDbRotatedDimension
0
DIMENSION
5
A0
100
AcDbEntity
8
Measurements
6
ByLayer
62
256
370
-1
100
AcDbDimension
2
*D2
10
395
20
-3.67381906147e-015
30
0
11
387.5
21
185
31
0
70
32
71
5
72
0
3
Standard
53
0
210
0
220
0
230
1
100
AcDbAlignedDimension
13
365
23
370
33
0
14
365
24
0
34
0
50
90
100
AcDbRotatedDimension
0
DIMENSION
5
A1
100
AcDbEntity
8
Measurements
6
ByLayer
62
256
370
-1
100
AcDbDimension
2
*D3
10
31.3735979193
20
359.397315376
30
0
11
33.0134231201
21
366.867989597
31
0
70
35
1
%%C<>
71
5
72
0
3
Standard
53
0
210
0
220
0
230
1
100
AcDbDiametricDimension
15
28.6264020807
25
360.602684624
35
0
40
0
0
DIMENSION
5
A2
100
AcDbEntity
8
Measurements
6
ByLayer
62
256
370
-1
100
AcDbDimension
2
*D4
10
17.3105195354
20
7.0391395118
30
0
11
14.4483865846
21
15.0427758711
31
0
70
35
1
%%C<>
71
5
72
0
3
Standard
53
0
210
0
220
0
230
1
100
AcDbDiametricDimension
15
22.6894804646
25
12.9608604882
35
0
40
0
0
ENDSEC
0
SECTION
2
OBJECTS
0
DICTIONARY
5
C
330
0
100
AcDbDictionary
281
1
3
ACAD_GROUP
350
D
0
DICTIONARY
5
D
330
C
100
AcDbDictionary
281
1
0
ENDSEC
0
EOF
